<svg width="636" height="546" viewBox="0 0 636 546" fill="none" xmlns="http://www.w3.org/2000/svg">
<path d="M522.823 149.047C489.354 154.293 485.072 187.617 487.114 203.623C549.628 208.726 541.464 189.136 555.532 175.243C594.122 176.182 603.235 148.378 605.499 134.449C643.409 104.976 592.507 89.3586 585.065 107.318C550.538 99.0489 525.079 132.944 522.823 149.047Z" fill="#54945A" stroke="white"/>
<path d="M590.163 129.325C547.881 133.404 466.862 210.648 431.986 248.953L441.148 258.679C459.901 222.221 548.537 157.381 590.163 129.325Z" fill="#8DD093" stroke="white"/>
<path d="M435.052 140.858C460.868 155.119 454.451 183.66 448.016 196.148C416.243 194.729 389.48 174.022 396.921 151.979C358.717 149.812 369.477 116.36 371.772 104.289C349.536 68.8826 380.668 76.3581 396.562 88.1767C427.266 91.6944 446.037 103.776 435.052 140.858Z" fill="#54945A" stroke="white"/>
<path d="M385.179 109.152C424.464 127.413 475.146 228.07 495.173 276.179L482.902 282.259C477.752 241.387 415.338 149.867 385.179 109.152Z" fill="#8DD093" stroke="white"/>
<path d="M502.433 140.759C514.332 176.96 483.113 197.537 466.016 203.301C437.16 173.617 449.531 154.024 456.249 133.1C435.522 94.7725 461.876 59.613 474.682 50.5357C484.798 -1.95886 507.713 32.7362 512.363 57.8245C538.357 88.4882 517.423 130.628 502.433 140.759Z" fill="#54945A" stroke="white"/>
<path d="M491.775 53.1896C509.363 97.6782 473.448 216.828 452.92 270.587L438.47 266.129C465.412 229.476 484.985 108.727 491.775 53.1896Z" fill="#8DD093" stroke="white"/>
<ellipse cx="446.355" cy="335.483" rx="115.5" ry="126" transform="rotate(10 446.355 335.483)" fill="url(#paint0_linear_51_52)"/>
<path d="M431.879 295.695C429.935 301.858 423.099 290.04 411.248 286.303C399.397 282.566 387.018 288.326 388.961 282.163C390.905 276 402.087 274.032 413.939 277.769C425.79 281.506 433.822 289.531 431.879 295.695Z" fill="black"/>
<path d="M380.302 269.242C379.261 267.435 381.333 265.44 383.099 266.549L398.582 276.274C399.833 277.06 399.83 278.885 398.575 279.666L391.306 284.19C390.346 284.788 389.082 284.471 388.517 283.491L380.302 269.242Z" fill="black"/>
<path d="M469.782 307.645C467.839 313.809 480.217 308.049 492.068 311.785C503.92 315.522 510.756 327.34 512.699 321.177C514.642 315.014 506.61 306.988 494.759 303.252C482.908 299.515 471.725 301.482 469.782 307.645Z" fill="black"/>
<path d="M527.203 315.559C529.092 314.677 528.539 311.854 526.456 311.75L508.195 310.835C506.72 310.761 505.676 312.258 506.256 313.617L509.615 321.492C510.059 322.533 511.276 322.998 512.301 322.52L527.203 315.559Z" fill="black"/>
<path d="M457.533 337.898C454.71 346.853 445.162 351.823 436.208 349C427.254 346.176 422.284 336.629 425.107 327.674" stroke="black" stroke-width="2"/>
<path d="M460.794 443.633L411.265 439.469C414.653 477.84 433.23 513.576 442.095 526.647C428.93 499.956 449.076 460.183 460.794 443.633Z" fill="white"/>
<path d="M112.411 149.047C145.88 154.293 150.163 187.617 148.12 203.623C85.6065 208.726 93.7704 189.136 79.7025 175.243C41.112 176.182 31.9992 148.378 29.7355 134.449C-8.17418 104.976 42.7273 89.3586 50.1697 107.318C84.6967 99.0489 110.155 132.944 112.411 149.047Z" fill="#54945A" stroke="white"/>
<path d="M45.0718 129.325C87.3538 133.404 168.372 210.648 203.248 248.953L194.087 258.679C175.333 222.221 86.6975 157.381 45.0718 129.325Z" fill="#8DD093" stroke="white"/>
<path d="M200.182 140.858C174.367 155.119 180.783 183.66 187.218 196.148C218.992 194.729 245.754 174.022 238.314 151.979C276.518 149.812 265.757 116.36 263.463 104.289C285.699 68.8826 254.566 76.3581 238.672 88.1767C207.969 91.6944 189.197 103.776 200.182 140.858Z" fill="#54945A" stroke="white"/>
<path d="M250.056 109.152C210.77 127.413 160.088 228.07 140.062 276.179L152.333 282.259C157.483 241.387 219.896 149.867 250.056 109.152Z" fill="#8DD093" stroke="white"/>
<path d="M132.802 140.759C120.902 176.96 152.121 197.537 169.218 203.301C198.075 173.617 185.703 154.024 178.985 133.1C199.712 94.7725 173.359 59.613 160.552 50.5357C150.436 -1.95886 127.521 32.7362 122.871 57.8245C96.877 88.4882 117.812 130.628 132.802 140.759Z" fill="#54945A" stroke="white"/>
<path d="M143.459 53.1896C125.871 97.6782 161.787 216.828 182.315 270.587L196.765 266.129C169.823 229.476 150.25 108.727 143.459 53.1896Z" fill="#8DD093" stroke="white"/>
<ellipse cx="115.5" cy="126" rx="115.5" ry="126" transform="matrix(-0.984808 0.173648 0.173648 0.984808 280.745 191.341)" fill="url(#paint1_linear_51_52)"/>
<path d="M203.356 295.695C205.299 301.858 212.135 290.04 223.986 286.303C235.838 282.566 248.216 288.326 246.273 282.163C244.33 276 233.147 274.032 221.296 277.769C209.444 281.506 201.412 289.531 203.356 295.695Z" fill="black"/>
<path d="M254.932 269.242C255.974 267.435 253.901 265.44 252.136 266.549L236.652 276.274C235.401 277.06 235.405 278.885 236.659 279.666L243.928 284.19C244.888 284.788 246.153 284.471 246.718 283.491L254.932 269.242Z" fill="black"/>
<path d="M165.453 307.645C167.396 313.809 155.017 308.049 143.166 311.785C131.315 315.522 124.479 327.34 122.535 321.177C120.592 315.014 128.624 306.988 140.475 303.252C152.327 299.515 163.509 301.482 165.453 307.645Z" fill="black"/>
<path d="M108.032 315.559C106.142 314.677 106.695 311.854 108.778 311.75L127.039 310.835C128.515 310.761 129.558 312.258 128.979 313.617L125.619 321.492C125.176 322.533 123.958 322.998 122.933 322.52L108.032 315.559Z" fill="black"/>
<path d="M177.701 337.898C180.524 346.853 190.072 351.823 199.026 349C207.981 346.176 212.951 336.629 210.127 327.674" stroke="black" stroke-width="2"/>
<path d="M174.44 443.633L223.969 439.469C220.581 477.84 202.004 513.576 193.139 526.647C206.304 499.956 186.159 460.183 174.44 443.633Z" fill="white"/>
<defs>
<linearGradient id="paint0_linear_51_52" x1="446.355" y1="209.483" x2="446.355" y2="461.483" gradientUnits="userSpaceOnUse">
<stop stop-color="#FB6162"/>
<stop offset="0.848958" stop-color="white"/>
</linearGradient>
<linearGradient id="paint1_linear_51_52" x1="115.5" y1="0" x2="115.5" y2="252" gradientUnits="userSpaceOnUse">
<stop stop-color="#FB6162"/>
<stop offset="0.848958" stop-color="white"/>
</linearGradient>
</defs>
</svg>
