<svg width="331" height="331" viewBox="0 0 331 331" fill="none" xmlns="http://www.w3.org/2000/svg">
<circle cx="165.5" cy="165.5" r="165.5" fill="white"/>
<g filter="url(#filter0_d_56_87)">
<path d="M188.313 91.3394C170.494 97.4431 171.366 116.103 174.03 124.669C208.751 121.428 202.39 111.49 208.751 102.525C229.971 99.3132 232.276 83.2098 232.171 75.3646C250.082 55.5673 220.704 51.9304 218.363 62.4826C198.66 61.2881 187.993 82.3049 188.313 91.3394Z" fill="#54945A" stroke="white"/>
<path d="M223.28 74.0395C200.523 80.3554 163.62 130.471 148.222 154.811L154.177 159.252C160.926 137.48 203.197 93.4198 223.28 74.0395Z" fill="#8DD093" stroke="white"/>
<path d="M139.465 95.329C154.977 100.645 154.219 116.892 151.901 124.351C134.367 126.641 117.714 117.887 119.66 105.1C98.533 107.602 101.195 88.2466 101.286 81.4157C85.6928 64.1765 103.461 65.2639 113.304 70.2005C130.455 69.1623 141.9 73.9649 139.465 95.329Z" fill="#54945A" stroke="white"/>
<path d="M109.097 82.7845C132.37 88.99 169.838 139.21 185.448 163.618L179.316 168.131C172.55 146.25 129.541 102.166 109.097 82.7845Z" fill="#8DD093" stroke="white"/>
<path d="M176.348 88.77C186.358 107.442 171.252 121.723 162.447 126.53C143.781 113.063 148.663 101.14 150.322 89.0352C135.272 70.0508 146.308 48.2554 152.443 42.0489C152.914 12.3296 168.81 29.1141 173.778 42.4018C190.972 56.6816 183.578 81.7759 176.348 88.77Z" fill="#54945A" stroke="white"/>
<path d="M162.059 41.8517C175.984 64.5127 167.822 133.219 161.773 164.635L153.43 163.59C164.643 140.92 163.702 72.916 162.059 41.8517Z" fill="#8DD093" stroke="white"/>
<ellipse cx="164.443" cy="200.802" rx="64.2158" ry="70.0536" fill="url(#paint0_linear_56_87)"/>
<path d="M152.676 180.414C152.207 183.976 147.323 178.165 140.473 177.263C133.623 176.362 127.402 180.711 127.871 177.148C128.34 173.586 134.273 171.429 141.122 172.331C147.972 173.233 153.145 176.852 152.676 180.414Z" fill="black"/>
<path d="M124.178 173.649C122.839 172.051 124.533 169.727 126.464 170.512L131.254 172.46C132.623 173.017 132.936 174.815 131.836 175.801L130.034 177.418C129.192 178.174 127.892 178.081 127.166 177.214L124.178 173.649Z" fill="black"/>
<path d="M174.583 183.298C174.114 186.861 180.335 182.512 187.185 183.413C194.035 184.315 198.919 190.126 199.388 186.564C199.857 183.002 194.684 179.383 187.835 178.481C180.985 177.579 175.052 179.736 174.583 183.298Z" fill="black"/>
<path d="M203.861 184.14C205.568 182.943 204.533 180.259 202.464 180.518L197.333 181.16C195.867 181.343 195.099 182.998 195.906 184.236L197.228 186.265C197.846 187.212 199.126 187.459 200.052 186.81L203.861 184.14Z" fill="black"/>
<path d="M170.797 201.045C170.116 206.221 165.368 209.864 160.193 209.183C155.017 208.501 151.374 203.753 152.055 198.578" stroke="black" stroke-width="2"/>
<path d="M182.791 258.624L155.27 261.126C160.829 281.808 174.451 299.581 180.567 305.882C170.781 292.539 177.972 268.817 182.791 258.624Z" fill="white"/>
</g>
<defs>
<filter id="filter0_d_56_87" x="90.6274" y="24.9999" width="151.802" height="288.882" filterUnits="userSpaceOnUse" color-interpolation-filters="sRGB">
<feFlood flood-opacity="0" result="BackgroundImageFix"/>
<feColorMatrix in="SourceAlpha" type="matrix" values="0 0 0 0 0 0 0 0 0 0 0 0 0 0 0 0 0 0 127 0" result="hardAlpha"/>
<feOffset dy="4"/>
<feGaussianBlur stdDeviation="2"/>
<feComposite in2="hardAlpha" operator="out"/>
<feColorMatrix type="matrix" values="0 0 0 0 0 0 0 0 0 0 0 0 0 0 0 0 0 0 0.25 0"/>
<feBlend mode="normal" in2="BackgroundImageFix" result="effect1_dropShadow_56_87"/>
<feBlend mode="normal" in="SourceGraphic" in2="effect1_dropShadow_56_87" result="shape"/>
</filter>
<linearGradient id="paint0_linear_56_87" x1="164.443" y1="130.748" x2="164.443" y2="270.855" gradientUnits="userSpaceOnUse">
<stop stop-color="#FB6162"/>
<stop offset="0.848958" stop-color="white"/>
</linearGradient>
</defs>
</svg>
