<svg width="1512" height="666" viewBox="0 0 1512 666" fill="none" xmlns="http://www.w3.org/2000/svg">
<path d="M538.028 94.7957C495.89 81.0296 471.101 117.338 463.973 137.213C533.827 180.299 535.946 152.609 560.601 144.768C605.036 168.788 632.178 141.785 643.092 126.89C704.799 115.048 654.731 66.6011 635.385 83.1193C600.042 52.9669 550.224 77.3616 538.028 94.7957Z" stroke="white" stroke-width="2"/>
<path d="M628.255 111.805C576.535 91.4437 436.189 133.373 372.771 157.314L377.675 174.096C421.198 142.731 563.057 119.788 628.255 111.805Z" stroke="white" stroke-width="2"/>
<path d="M86.0634 193.508C54.4948 162.386 16.1094 183.818 0.862799 198.425C44.1518 268.153 58.4037 244.318 83.9672 248.302C113.016 289.625 149.354 277.569 165.768 269.109C226.276 286.045 203.085 220.348 178.401 226.498C160.226 183.744 104.757 183.347 86.0634 193.508Z" stroke="white" stroke-width="2"/>
<path d="M159.221 248.989C122.02 207.689 -22.2895 182.591 -89.7262 175.72L-92.8263 192.927C-39.881 184.277 97.311 227.041 159.221 248.989Z" stroke="white" stroke-width="2"/>
<path d="M104.686 419.582C62.0009 431.547 61.5611 475.508 66.6768 495.993C148.695 493.01 135.074 468.809 151.218 448.592C201.508 443.877 209.074 406.345 209.873 387.897C254.602 343.768 186.056 331.303 179.147 355.785C133.009 350.35 105.14 398.31 104.686 419.582Z" stroke="white" stroke-width="2"/>
<path d="M189.156 383.597C134.84 395.402 41.441 508.237 2.01263 563.376L15.4135 574.606C34.1757 524.346 139.381 426.457 189.156 383.597Z" stroke="white" stroke-width="2"/>
<path d="M1020.84 413.089C995.948 376.406 954.119 389.938 936.316 401.29C965.17 478.123 983.798 457.527 1008.09 466.421C1028.52 512.617 1066.51 507.883 1084.26 502.787C1140.3 531.202 1130.38 462.243 1104.97 463.46C1095.48 417.981 1041.16 406.77 1020.84 413.089Z" stroke="white" stroke-width="2"/>
<path d="M1081.77 481.776C1053.34 434.013 916.698 381.243 851.897 361.348L845.5 377.62C899.116 379.465 1025.33 448.172 1081.77 481.776Z" stroke="white" stroke-width="2"/>
<path d="M1335.69 466.582C1293 478.547 1292.56 522.508 1297.68 542.993C1379.7 540.01 1366.07 515.809 1382.22 495.592C1432.51 490.877 1440.07 453.345 1440.87 434.897C1485.6 390.768 1417.06 378.303 1410.15 402.785C1364.01 397.35 1336.14 445.31 1335.69 466.582Z" stroke="white" stroke-width="2"/>
<path d="M1420.16 430.597C1365.84 442.402 1272.44 555.237 1233.01 610.376L1246.41 621.606C1265.18 571.346 1370.38 473.457 1420.16 430.597Z" stroke="white" stroke-width="2"/>
<path d="M1136.7 198.215C1098.44 175.822 1066.51 206.044 1055.33 223.954C1114.45 280.881 1122.4 254.271 1148.16 251.84C1186.48 284.741 1218.74 264.111 1232.56 251.871C1295.38 253.392 1256.73 195.425 1234.32 207.462C1206.18 170.497 1152.32 183.766 1136.7 198.215Z" stroke="white" stroke-width="2"/>
<path d="M1221.26 233.982C1175.04 203.11 1028.99 214.306 961.941 224.246L963.172 241.687C1012.36 220.27 1155.86 227.949 1221.26 233.982Z" stroke="white" stroke-width="2"/>
<path d="M1464.09 266.609C1481.52 307.367 1525.16 302.065 1544.8 294.319C1531.14 213.391 1508.93 230.055 1486.77 216.689C1475.54 167.443 1437.34 164.842 1418.94 166.457C1369.35 127.871 1365.94 197.457 1391.12 201.112C1391.75 247.564 1442.94 268.935 1464.09 266.609Z" stroke="white" stroke-width="2"/>
<path d="M1417.38 187.558C1436.18 239.868 1560.24 317.741 1620.05 349.635L1629.44 334.883C1577.16 322.841 1466.37 231.313 1417.38 187.558Z" stroke="white" stroke-width="2"/>
</svg>
