<svg width="372" height="214" viewBox="0 0 372 214" fill="none" xmlns="http://www.w3.org/2000/svg">
<path d="M59.8108 205V191.909H61.396V203.594H67.4813V205H59.8108ZM69.7313 205V195.182H71.2398V205H69.7313ZM70.4983 193.545C70.2043 193.545 69.9507 193.445 69.7377 193.245C69.5289 193.045 69.4244 192.804 69.4244 192.523C69.4244 192.241 69.5289 192.001 69.7377 191.8C69.9507 191.6 70.2043 191.5 70.4983 191.5C70.7923 191.5 71.0438 191.6 71.2526 191.8C71.4656 192.001 71.5722 192.241 71.5722 192.523C71.5722 192.804 71.4656 193.045 71.2526 193.245C71.0438 193.445 70.7923 193.545 70.4983 193.545ZM78.2726 195.182V196.46H73.1846V195.182H78.2726ZM74.6675 192.83H76.176V202.188C76.176 202.614 76.2378 202.933 76.3614 203.146C76.4893 203.355 76.6512 203.496 76.8472 203.568C77.0475 203.636 77.2584 203.67 77.48 203.67C77.6462 203.67 77.7826 203.662 77.8891 203.645C77.9957 203.624 78.0809 203.607 78.1448 203.594L78.4516 204.949C78.3493 204.987 78.2066 205.026 78.0233 205.064C77.8401 205.107 77.6079 205.128 77.3266 205.128C76.9005 205.128 76.4829 205.036 76.0738 204.853C75.6689 204.67 75.3323 204.391 75.0638 204.016C74.7996 203.641 74.6675 203.168 74.6675 202.597V192.83ZM84.8117 195.182V196.46H79.7236V195.182H84.8117ZM81.2066 192.83H82.7151V202.188C82.7151 202.614 82.7769 202.933 82.9005 203.146C83.0283 203.355 83.1903 203.496 83.3863 203.568C83.5866 203.636 83.7975 203.67 84.0191 203.67C84.1853 203.67 84.3216 203.662 84.4282 203.645C84.5347 203.624 84.6199 203.607 84.6839 203.594L84.9907 204.949C84.8884 204.987 84.7456 205.026 84.5624 205.064C84.3792 205.107 84.1469 205.128 83.8657 205.128C83.4395 205.128 83.0219 205.036 82.6128 204.853C82.208 204.67 81.8714 204.391 81.6029 204.016C81.3387 203.641 81.2066 203.168 81.2066 202.597V192.83ZM88.8003 191.909V205H87.2918V191.909H88.8003ZM95.6798 205.205C94.7338 205.205 93.9177 204.996 93.2316 204.578C92.5498 204.156 92.0235 203.568 91.6528 202.814C91.2863 202.055 91.1031 201.173 91.1031 200.168C91.1031 199.162 91.2863 198.276 91.6528 197.509C92.0235 196.737 92.5392 196.136 93.1997 195.706C93.8644 195.271 94.64 195.054 95.5264 195.054C96.0377 195.054 96.5427 195.139 97.0413 195.31C97.5399 195.48 97.9937 195.757 98.4028 196.141C98.8119 196.52 99.1379 197.023 99.3808 197.649C99.6237 198.276 99.7451 199.047 99.7451 199.963V200.602H92.1769V199.298H98.211C98.211 198.744 98.1002 198.25 97.8786 197.815C97.6613 197.381 97.3502 197.038 96.9454 196.786C96.5448 196.535 96.0718 196.409 95.5264 196.409C94.9255 196.409 94.4056 196.558 93.9667 196.857C93.532 197.151 93.1975 197.534 92.9632 198.007C92.7288 198.48 92.6116 198.987 92.6116 199.528V200.398C92.6116 201.139 92.7394 201.768 92.9951 202.283C93.2551 202.795 93.6151 203.185 94.0754 203.453C94.5356 203.717 95.0704 203.849 95.6798 203.849C96.0761 203.849 96.434 203.794 96.7536 203.683C97.0775 203.568 97.3566 203.398 97.591 203.172C97.8254 202.942 98.0065 202.656 98.1343 202.315L99.5917 202.724C99.4383 203.219 99.1805 203.653 98.8183 204.028C98.4561 204.399 98.0086 204.689 97.4759 204.898C96.9433 205.102 96.3445 205.205 95.6798 205.205ZM107.307 205V191.909H108.815V196.741H108.943C109.054 196.571 109.207 196.354 109.403 196.089C109.604 195.821 109.889 195.582 110.26 195.374C110.635 195.161 111.142 195.054 111.781 195.054C112.608 195.054 113.337 195.261 113.967 195.674C114.598 196.087 115.09 196.673 115.444 197.432C115.798 198.19 115.975 199.085 115.975 200.116C115.975 201.156 115.798 202.058 115.444 202.82C115.09 203.579 114.6 204.167 113.974 204.585C113.347 204.998 112.625 205.205 111.807 205.205C111.176 205.205 110.671 205.1 110.292 204.891C109.913 204.678 109.621 204.437 109.416 204.169C109.212 203.896 109.054 203.67 108.943 203.491H108.764V205H107.307ZM108.79 200.091C108.79 200.832 108.899 201.487 109.116 202.053C109.333 202.616 109.651 203.057 110.068 203.376C110.486 203.692 110.997 203.849 111.602 203.849C112.233 203.849 112.759 203.683 113.181 203.351C113.607 203.014 113.927 202.562 114.14 201.996C114.357 201.425 114.466 200.79 114.466 200.091C114.466 199.401 114.359 198.778 114.146 198.224C113.938 197.666 113.62 197.225 113.194 196.901C112.772 196.573 112.242 196.409 111.602 196.409C110.989 196.409 110.473 196.565 110.055 196.876C109.638 197.183 109.323 197.613 109.109 198.167C108.896 198.717 108.79 199.358 108.79 200.091ZM118.282 205V195.182H119.791V205H118.282ZM119.049 193.545C118.755 193.545 118.502 193.445 118.288 193.245C118.08 193.045 117.975 192.804 117.975 192.523C117.975 192.241 118.08 192.001 118.288 191.8C118.502 191.6 118.755 191.5 119.049 191.5C119.343 191.5 119.595 191.6 119.803 191.8C120.016 192.001 120.123 192.241 120.123 192.523C120.123 192.804 120.016 193.045 119.803 193.245C119.595 193.445 119.343 193.545 119.049 193.545ZM126.823 195.182V196.46H121.735V195.182H126.823ZM123.218 192.83H124.727V202.188C124.727 202.614 124.789 202.933 124.912 203.146C125.04 203.355 125.202 203.496 125.398 203.568C125.598 203.636 125.809 203.67 126.031 203.67C126.197 203.67 126.333 203.662 126.44 203.645C126.546 203.624 126.632 203.607 126.696 203.594L127.002 204.949C126.9 204.987 126.757 205.026 126.574 205.064C126.391 205.107 126.159 205.128 125.877 205.128C125.451 205.128 125.034 205.036 124.625 204.853C124.22 204.67 123.883 204.391 123.615 204.016C123.35 203.641 123.218 203.168 123.218 202.597V192.83ZM133.104 205.205C132.158 205.205 131.342 204.996 130.655 204.578C129.974 204.156 129.447 203.568 129.077 202.814C128.71 202.055 128.527 201.173 128.527 200.168C128.527 199.162 128.71 198.276 129.077 197.509C129.447 196.737 129.963 196.136 130.623 195.706C131.288 195.271 132.064 195.054 132.95 195.054C133.462 195.054 133.967 195.139 134.465 195.31C134.964 195.48 135.418 195.757 135.827 196.141C136.236 196.52 136.562 197.023 136.805 197.649C137.047 198.276 137.169 199.047 137.169 199.963V200.602H129.601V199.298H135.635C135.635 198.744 135.524 198.25 135.302 197.815C135.085 197.381 134.774 197.038 134.369 196.786C133.969 196.535 133.496 196.409 132.95 196.409C132.349 196.409 131.829 196.558 131.391 196.857C130.956 197.151 130.621 197.534 130.387 198.007C130.153 198.48 130.035 198.987 130.035 199.528V200.398C130.035 201.139 130.163 201.768 130.419 202.283C130.679 202.795 131.039 203.185 131.499 203.453C131.959 203.717 132.494 203.849 133.104 203.849C133.5 203.849 133.858 203.794 134.177 203.683C134.501 203.568 134.78 203.398 135.015 203.172C135.249 202.942 135.43 202.656 135.558 202.315L137.016 202.724C136.862 203.219 136.604 203.653 136.242 204.028C135.88 204.399 135.432 204.689 134.9 204.898C134.367 205.102 133.768 205.205 133.104 205.205ZM146.418 197.381L145.063 197.764C144.978 197.538 144.852 197.319 144.686 197.106C144.524 196.888 144.302 196.71 144.021 196.569C143.74 196.428 143.38 196.358 142.941 196.358C142.34 196.358 141.839 196.496 141.439 196.773C141.043 197.046 140.844 197.393 140.844 197.815C140.844 198.19 140.981 198.487 141.253 198.704C141.526 198.921 141.952 199.102 142.532 199.247L143.989 199.605C144.867 199.818 145.521 200.144 145.952 200.583C146.382 201.018 146.597 201.578 146.597 202.264C146.597 202.827 146.435 203.33 146.111 203.773C145.792 204.216 145.344 204.565 144.769 204.821C144.194 205.077 143.525 205.205 142.762 205.205C141.761 205.205 140.932 204.987 140.275 204.553C139.619 204.118 139.204 203.483 139.029 202.648L140.461 202.29C140.597 202.818 140.855 203.214 141.234 203.479C141.618 203.743 142.119 203.875 142.736 203.875C143.44 203.875 143.998 203.726 144.411 203.428C144.829 203.125 145.038 202.763 145.038 202.341C145.038 202 144.918 201.714 144.68 201.484C144.441 201.25 144.074 201.075 143.58 200.96L141.944 200.577C141.045 200.364 140.384 200.033 139.962 199.586C139.545 199.134 139.336 198.57 139.336 197.892C139.336 197.338 139.491 196.848 139.802 196.422C140.118 195.996 140.546 195.661 141.087 195.418C141.633 195.175 142.251 195.054 142.941 195.054C143.913 195.054 144.675 195.267 145.229 195.693C145.788 196.119 146.184 196.682 146.418 197.381ZM158.303 195.182V196.46H153.01V195.182H158.303ZM154.595 205V193.827C154.595 193.264 154.727 192.795 154.992 192.42C155.256 192.045 155.599 191.764 156.021 191.577C156.443 191.389 156.888 191.295 157.357 191.295C157.727 191.295 158.03 191.325 158.264 191.385C158.499 191.445 158.673 191.5 158.788 191.551L158.354 192.855C158.277 192.83 158.171 192.798 158.034 192.759C157.902 192.721 157.727 192.702 157.51 192.702C157.011 192.702 156.651 192.827 156.43 193.079C156.212 193.33 156.104 193.699 156.104 194.185V205H154.595ZM164.001 205.205C163.115 205.205 162.337 204.994 161.668 204.572C161.003 204.15 160.483 203.56 160.108 202.801C159.738 202.043 159.552 201.156 159.552 200.142C159.552 199.119 159.738 198.227 160.108 197.464C160.483 196.701 161.003 196.109 161.668 195.687C162.337 195.265 163.115 195.054 164.001 195.054C164.888 195.054 165.663 195.265 166.328 195.687C166.997 196.109 167.517 196.701 167.888 197.464C168.263 198.227 168.45 199.119 168.45 200.142C168.45 201.156 168.263 202.043 167.888 202.801C167.517 203.56 166.997 204.15 166.328 204.572C165.663 204.994 164.888 205.205 164.001 205.205ZM164.001 203.849C164.674 203.849 165.228 203.677 165.663 203.332C166.098 202.987 166.419 202.533 166.628 201.97C166.837 201.408 166.941 200.798 166.941 200.142C166.941 199.486 166.837 198.874 166.628 198.308C166.419 197.741 166.098 197.283 165.663 196.933C165.228 196.584 164.674 196.409 164.001 196.409C163.328 196.409 162.774 196.584 162.339 196.933C161.905 197.283 161.583 197.741 161.374 198.308C161.165 198.874 161.061 199.486 161.061 200.142C161.061 200.798 161.165 201.408 161.374 201.97C161.583 202.533 161.905 202.987 162.339 203.332C162.774 203.677 163.328 203.849 164.001 203.849ZM170.753 205V195.182H172.21V196.665H172.312C172.491 196.179 172.815 195.785 173.284 195.482C173.753 195.18 174.281 195.028 174.869 195.028C174.98 195.028 175.119 195.031 175.285 195.035C175.451 195.039 175.577 195.045 175.662 195.054V196.588C175.611 196.575 175.494 196.556 175.31 196.531C175.131 196.501 174.942 196.486 174.741 196.486C174.264 196.486 173.838 196.586 173.463 196.786C173.092 196.982 172.798 197.255 172.581 197.604C172.368 197.95 172.261 198.344 172.261 198.787V205H170.753ZM183.484 208.682C183.228 208.682 183 208.661 182.8 208.618C182.6 208.58 182.461 208.541 182.385 208.503L182.768 207.173C183.135 207.267 183.459 207.301 183.74 207.276C184.021 207.25 184.27 207.124 184.488 206.898C184.709 206.677 184.912 206.317 185.095 205.818L185.376 205.051L181.745 195.182H183.382L186.092 203.006H186.194L188.905 195.182H190.541L186.373 206.432C186.186 206.939 185.954 207.359 185.677 207.691C185.4 208.028 185.078 208.277 184.711 208.439C184.349 208.601 183.94 208.682 183.484 208.682ZM196.169 205.205C195.283 205.205 194.505 204.994 193.836 204.572C193.171 204.15 192.651 203.56 192.276 202.801C191.906 202.043 191.72 201.156 191.72 200.142C191.72 199.119 191.906 198.227 192.276 197.464C192.651 196.701 193.171 196.109 193.836 195.687C194.505 195.265 195.283 195.054 196.169 195.054C197.055 195.054 197.831 195.265 198.496 195.687C199.165 196.109 199.685 196.701 200.055 197.464C200.43 198.227 200.618 199.119 200.618 200.142C200.618 201.156 200.43 202.043 200.055 202.801C199.685 203.56 199.165 204.15 198.496 204.572C197.831 204.994 197.055 205.205 196.169 205.205ZM196.169 203.849C196.842 203.849 197.396 203.677 197.831 203.332C198.266 202.987 198.587 202.533 198.796 201.97C199.005 201.408 199.109 200.798 199.109 200.142C199.109 199.486 199.005 198.874 198.796 198.308C198.587 197.741 198.266 197.283 197.831 196.933C197.396 196.584 196.842 196.409 196.169 196.409C195.496 196.409 194.942 196.584 194.507 196.933C194.073 197.283 193.751 197.741 193.542 198.308C193.333 198.874 193.229 199.486 193.229 200.142C193.229 200.798 193.333 201.408 193.542 201.97C193.751 202.533 194.073 202.987 194.507 203.332C194.942 203.677 195.496 203.849 196.169 203.849ZM209.108 200.986V195.182H210.617V205H209.108V203.338H209.006C208.776 203.837 208.418 204.261 207.932 204.61C207.446 204.955 206.833 205.128 206.091 205.128C205.478 205.128 204.932 204.994 204.455 204.725C203.978 204.452 203.603 204.043 203.33 203.498C203.057 202.948 202.921 202.256 202.921 201.42V195.182H204.429V201.318C204.429 202.034 204.63 202.605 205.03 203.031C205.435 203.457 205.951 203.67 206.577 203.67C206.952 203.67 207.333 203.575 207.721 203.383C208.113 203.191 208.441 202.897 208.706 202.501C208.974 202.104 209.108 201.599 209.108 200.986ZM213.38 205V195.182H214.837V196.665H214.939C215.118 196.179 215.442 195.785 215.911 195.482C216.38 195.18 216.908 195.028 217.496 195.028C217.607 195.028 217.745 195.031 217.912 195.035C218.078 195.039 218.204 195.045 218.289 195.054V196.588C218.238 196.575 218.12 196.556 217.937 196.531C217.758 196.501 217.569 196.486 217.368 196.486C216.891 196.486 216.465 196.586 216.09 196.786C215.719 196.982 215.425 197.255 215.208 197.604C214.995 197.95 214.888 198.344 214.888 198.787V205H213.38ZM227.364 205L224.372 195.182H225.958L228.08 202.699H228.182L230.279 195.182H231.889L233.96 202.673H234.063L236.185 195.182H237.77L234.779 205H233.296L231.148 197.457H230.995L228.847 205H227.364ZM243.547 205.205C242.601 205.205 241.785 204.996 241.099 204.578C240.417 204.156 239.891 203.568 239.52 202.814C239.153 202.055 238.97 201.173 238.97 200.168C238.97 199.162 239.153 198.276 239.52 197.509C239.891 196.737 240.406 196.136 241.067 195.706C241.732 195.271 242.507 195.054 243.394 195.054C243.905 195.054 244.41 195.139 244.908 195.31C245.407 195.48 245.861 195.757 246.27 196.141C246.679 196.52 247.005 197.023 247.248 197.649C247.491 198.276 247.612 199.047 247.612 199.963V200.602H240.044V199.298H246.078C246.078 198.744 245.967 198.25 245.746 197.815C245.528 197.381 245.217 197.038 244.813 196.786C244.412 196.535 243.939 196.409 243.394 196.409C242.793 196.409 242.273 196.558 241.834 196.857C241.399 197.151 241.065 197.534 240.83 198.007C240.596 198.48 240.479 198.987 240.479 199.528V200.398C240.479 201.139 240.607 201.768 240.862 202.283C241.122 202.795 241.482 203.185 241.943 203.453C242.403 203.717 242.938 203.849 243.547 203.849C243.943 203.849 244.301 203.794 244.621 203.683C244.945 203.568 245.224 203.398 245.458 203.172C245.693 202.942 245.874 202.656 246.002 202.315L247.459 202.724C247.305 203.219 247.048 203.653 246.685 204.028C246.323 204.399 245.876 204.689 245.343 204.898C244.81 205.102 244.212 205.205 243.547 205.205ZM251.416 191.909V205H249.907V191.909H251.416ZM255.687 191.909V205H254.179V191.909H255.687ZM264.075 198.685V200.091H258.348V198.685H264.075ZM266.934 205V191.909H268.442V196.741H268.57C268.681 196.571 268.834 196.354 269.03 196.089C269.231 195.821 269.516 195.582 269.887 195.374C270.262 195.161 270.769 195.054 271.408 195.054C272.235 195.054 272.964 195.261 273.594 195.674C274.225 196.087 274.717 196.673 275.071 197.432C275.425 198.19 275.601 199.085 275.601 200.116C275.601 201.156 275.425 202.058 275.071 202.82C274.717 203.579 274.227 204.167 273.601 204.585C272.974 204.998 272.252 205.205 271.434 205.205C270.803 205.205 270.298 205.1 269.919 204.891C269.54 204.678 269.248 204.437 269.043 204.169C268.839 203.896 268.681 203.67 268.57 203.491H268.391V205H266.934ZM268.417 200.091C268.417 200.832 268.525 201.487 268.743 202.053C268.96 202.616 269.278 203.057 269.695 203.376C270.113 203.692 270.624 203.849 271.229 203.849C271.86 203.849 272.386 203.683 272.808 203.351C273.234 203.014 273.554 202.562 273.767 201.996C273.984 201.425 274.093 200.79 274.093 200.091C274.093 199.401 273.986 198.778 273.773 198.224C273.565 197.666 273.247 197.225 272.821 196.901C272.399 196.573 271.869 196.409 271.229 196.409C270.616 196.409 270.1 196.565 269.682 196.876C269.265 197.183 268.949 197.613 268.736 198.167C268.523 198.717 268.417 199.358 268.417 200.091ZM282.025 205.205C281.079 205.205 280.263 204.996 279.577 204.578C278.896 204.156 278.369 203.568 277.998 202.814C277.632 202.055 277.449 201.173 277.449 200.168C277.449 199.162 277.632 198.276 277.998 197.509C278.369 196.737 278.885 196.136 279.545 195.706C280.21 195.271 280.986 195.054 281.872 195.054C282.383 195.054 282.888 195.139 283.387 195.31C283.886 195.48 284.339 195.757 284.748 196.141C285.158 196.52 285.484 197.023 285.726 197.649C285.969 198.276 286.091 199.047 286.091 199.963V200.602H278.523V199.298H284.557C284.557 198.744 284.446 198.25 284.224 197.815C284.007 197.381 283.696 197.038 283.291 196.786C282.891 196.535 282.418 196.409 281.872 196.409C281.271 196.409 280.751 196.558 280.312 196.857C279.878 197.151 279.543 197.534 279.309 198.007C279.074 198.48 278.957 198.987 278.957 199.528V200.398C278.957 201.139 279.085 201.768 279.341 202.283C279.601 202.795 279.961 203.185 280.421 203.453C280.881 203.717 281.416 203.849 282.025 203.849C282.422 203.849 282.78 203.794 283.099 203.683C283.423 203.568 283.702 203.398 283.937 203.172C284.171 202.942 284.352 202.656 284.48 202.315L285.937 202.724C285.784 203.219 285.526 203.653 285.164 204.028C284.802 204.399 284.354 204.689 283.822 204.898C283.289 205.102 282.69 205.205 282.025 205.205ZM288.386 205V195.182H289.894V205H288.386ZM289.153 193.545C288.859 193.545 288.605 193.445 288.392 193.245C288.183 193.045 288.079 192.804 288.079 192.523C288.079 192.241 288.183 192.001 288.392 191.8C288.605 191.6 288.859 191.5 289.153 191.5C289.447 191.5 289.698 191.6 289.907 191.8C290.12 192.001 290.226 192.241 290.226 192.523C290.226 192.804 290.12 193.045 289.907 193.245C289.698 193.445 289.447 193.545 289.153 193.545ZM294.166 199.094V205H292.657V195.182H294.114V196.716H294.242C294.472 196.217 294.822 195.817 295.291 195.514C295.759 195.207 296.364 195.054 297.106 195.054C297.771 195.054 298.352 195.19 298.851 195.463C299.35 195.732 299.737 196.141 300.014 196.69C300.291 197.236 300.43 197.926 300.43 198.761V205H298.921V198.864C298.921 198.092 298.721 197.491 298.32 197.061C297.92 196.626 297.37 196.409 296.671 196.409C296.19 196.409 295.759 196.513 295.38 196.722C295.005 196.931 294.709 197.236 294.492 197.636C294.274 198.037 294.166 198.523 294.166 199.094ZM307.149 208.886C306.421 208.886 305.794 208.793 305.27 208.605C304.746 208.422 304.309 208.179 303.96 207.876C303.615 207.578 303.34 207.259 303.135 206.918L304.337 206.074C304.473 206.253 304.646 206.457 304.855 206.688C305.063 206.922 305.349 207.124 305.711 207.295C306.078 207.469 306.557 207.557 307.149 207.557C307.942 207.557 308.596 207.365 309.112 206.982C309.627 206.598 309.885 205.997 309.885 205.179V203.185H309.757C309.647 203.364 309.489 203.585 309.284 203.849C309.084 204.109 308.794 204.342 308.415 204.546C308.04 204.746 307.533 204.847 306.894 204.847C306.101 204.847 305.389 204.659 304.759 204.284C304.132 203.909 303.636 203.364 303.269 202.648C302.907 201.932 302.726 201.062 302.726 200.04C302.726 199.034 302.903 198.158 303.257 197.413C303.61 196.663 304.103 196.083 304.733 195.674C305.364 195.261 306.093 195.054 306.919 195.054C307.559 195.054 308.066 195.161 308.441 195.374C308.82 195.582 309.11 195.821 309.31 196.089C309.514 196.354 309.672 196.571 309.783 196.741H309.936V195.182H311.394V205.281C311.394 206.125 311.202 206.811 310.818 207.339C310.439 207.872 309.928 208.262 309.284 208.509C308.645 208.761 307.934 208.886 307.149 208.886ZM307.098 203.491C307.703 203.491 308.215 203.353 308.632 203.076C309.05 202.799 309.367 202.401 309.585 201.881C309.802 201.361 309.911 200.739 309.911 200.014C309.911 199.307 309.804 198.683 309.591 198.141C309.378 197.6 309.063 197.176 308.645 196.869C308.228 196.562 307.712 196.409 307.098 196.409C306.459 196.409 305.926 196.571 305.5 196.895C305.078 197.219 304.761 197.653 304.548 198.199C304.339 198.744 304.235 199.349 304.235 200.014C304.235 200.696 304.341 201.299 304.554 201.823C304.772 202.343 305.091 202.752 305.513 203.05C305.939 203.344 306.468 203.491 307.098 203.491Z" fill="#333C4C"/>
<path d="M55.9086 165.854L51.5886 165.809C50.3586 165.809 49.4136 165.824 48.7536 165.854C48.2736 170.054 48.0336 173.459 48.0336 176.069C48.0336 178.679 48.1236 180.509 48.3036 181.559C47.3436 181.619 46.7136 181.649 46.4136 181.649C44.7036 181.649 43.4736 181.349 42.7236 180.749C41.9736 180.149 41.5986 179.099 41.5986 177.599C41.5986 176.069 42.0186 172.424 42.8586 166.664C41.8986 166.964 41.1936 167.219 40.7436 167.429C40.6836 166.769 40.6536 166.274 40.6536 165.944C40.6536 163.874 41.5986 162.584 43.4886 162.074C44.0586 157.964 44.4036 154.409 44.5236 151.409C42.9936 151.409 42.0186 151.199 41.5986 150.779C41.2086 150.359 41.0136 149.429 41.0136 147.989C41.1336 146.639 41.2536 145.754 41.3736 145.334C44.7636 145.784 48.4836 146.009 52.5336 146.009C56.5836 146.009 60.4986 145.649 64.2786 144.929C63.8586 148.079 61.9386 149.969 58.5186 150.599C56.6586 150.959 54.0036 151.199 50.5536 151.319C50.5236 151.709 50.0886 155.204 49.2486 161.804C50.9886 161.864 52.1736 161.894 52.8036 161.894C55.6536 161.894 57.6786 161.399 58.8786 160.409C58.9386 161.009 58.9686 161.459 58.9686 161.759C58.9686 164.489 57.9486 165.854 55.9086 165.854ZM73.9775 169.814C72.5375 169.814 71.1275 169.649 69.7475 169.319C69.7175 169.619 69.7025 170.084 69.7025 170.714C69.7025 173.204 70.1675 175.079 71.0975 176.339C72.0275 177.599 73.1375 178.229 74.4275 178.229C75.7175 178.229 76.9475 177.839 78.1175 177.059C79.2875 176.279 80.3075 175.199 81.1775 173.819C82.2575 174.059 82.7975 174.614 82.7975 175.484C80.1575 179.534 76.7525 181.559 72.5825 181.559C70.0625 181.559 67.8575 180.599 65.9675 178.679C64.0775 176.729 63.1325 174.029 63.1325 170.579C63.1325 167.999 63.6275 165.554 64.6175 163.244C65.6075 160.904 67.1825 158.939 69.3425 157.349C71.5025 155.729 73.8875 154.919 76.4975 154.919C79.1375 154.919 81.0725 155.519 82.3025 156.719C83.5325 157.919 84.1475 159.494 84.1475 161.444C84.1475 164.264 83.1575 166.364 81.1775 167.744C79.2275 169.124 76.8275 169.814 73.9775 169.814ZM75.8675 157.709C74.3375 157.709 73.0475 158.654 71.9975 160.544C70.9475 162.434 70.2575 164.729 69.9275 167.429H70.6025C73.2125 167.429 75.1325 166.754 76.3625 165.404C77.6225 164.054 78.2525 162.434 78.2525 160.544C78.2525 159.764 78.0425 159.104 77.6225 158.564C77.2325 157.994 76.6475 157.709 75.8675 157.709ZM99.1582 169.814C97.7182 169.814 96.3082 169.649 94.9282 169.319C94.8982 169.619 94.8832 170.084 94.8832 170.714C94.8832 173.204 95.3482 175.079 96.2782 176.339C97.2082 177.599 98.3182 178.229 99.6082 178.229C100.898 178.229 102.128 177.839 103.298 177.059C104.468 176.279 105.488 175.199 106.358 173.819C107.438 174.059 107.978 174.614 107.978 175.484C105.338 179.534 101.933 181.559 97.7632 181.559C95.2432 181.559 93.0382 180.599 91.1482 178.679C89.2582 176.729 88.3132 174.029 88.3132 170.579C88.3132 167.999 88.8082 165.554 89.7982 163.244C90.7882 160.904 92.3632 158.939 94.5232 157.349C96.6832 155.729 99.0682 154.919 101.678 154.919C104.318 154.919 106.253 155.519 107.483 156.719C108.713 157.919 109.328 159.494 109.328 161.444C109.328 164.264 108.338 166.364 106.358 167.744C104.408 169.124 102.008 169.814 99.1582 169.814ZM101.048 157.709C99.5182 157.709 98.2282 158.654 97.1782 160.544C96.1282 162.434 95.4382 164.729 95.1082 167.429H95.7832C98.3932 167.429 100.313 166.754 101.543 165.404C102.803 164.054 103.433 162.434 103.433 160.544C103.433 159.764 103.223 159.104 102.803 158.564C102.413 157.994 101.828 157.709 101.048 157.709ZM115.069 179.759C114.709 179.159 114.484 178.589 114.394 178.049C114.304 177.479 114.259 176.609 114.259 175.439C114.259 174.269 114.754 169.664 115.744 161.624C116.764 153.584 117.274 148.064 117.274 145.064C117.274 142.064 117.094 140.114 116.734 139.214C118.984 139.814 120.514 140.729 121.324 141.959C122.164 143.159 122.584 144.869 122.584 147.089C122.584 148.409 122.149 152.699 121.279 159.959C120.409 167.219 119.974 173.069 119.974 177.509C119.974 178.469 120.034 179.819 120.154 181.559C117.424 181.439 115.729 180.839 115.069 179.759ZM128.606 173.504C128.606 172.244 128.846 169.964 129.326 166.664C129.806 163.364 130.046 160.799 130.046 158.969C130.046 157.139 129.956 155.729 129.776 154.739C130.436 154.679 131.051 154.649 131.621 154.649C133.361 154.649 134.561 154.949 135.221 155.549C135.911 156.119 136.256 157.109 136.256 158.519C136.256 158.969 135.881 161.339 135.131 165.629C134.411 169.889 134.036 173.414 134.006 176.204C134.006 178.964 134.186 180.749 134.546 181.559C132.206 180.959 130.631 180.059 129.821 178.859C129.011 177.629 128.606 175.844 128.606 173.504ZM134.726 150.869C131.636 150.869 130.091 149.789 130.091 147.629C130.091 146.849 130.316 145.784 130.766 144.434C131.606 144.314 132.341 144.254 132.971 144.254C136.061 144.254 137.606 145.334 137.606 147.494C137.606 148.274 137.381 149.339 136.931 150.689C136.091 150.809 135.356 150.869 134.726 150.869ZM159.309 154.919C161.079 154.919 162.339 155.474 163.089 156.584C163.869 157.664 164.259 159.149 164.259 161.039C164.259 162.899 163.959 165.524 163.359 168.914C162.789 172.304 162.504 174.779 162.504 176.339C162.504 177.869 162.699 178.994 163.089 179.714C163.479 180.404 164.139 181.004 165.069 181.514C164.679 181.544 164.124 181.559 163.404 181.559C160.884 181.559 159.084 181.169 158.004 180.389C156.954 179.609 156.429 178.244 156.429 176.294C156.429 175.184 156.729 173.024 157.329 169.814C157.929 166.574 158.229 164.159 158.229 162.569C158.229 160.589 157.629 159.599 156.429 159.599C155.739 159.599 154.959 160.004 154.089 160.814C153.219 161.624 152.379 162.734 151.569 164.144C150.759 165.524 150.084 167.309 149.544 169.499C149.004 171.689 148.734 173.879 148.734 176.069C148.734 178.229 148.824 179.834 149.004 180.884C148.044 180.944 147.414 180.974 147.114 180.974C145.404 180.974 144.174 180.674 143.424 180.074C142.674 179.474 142.299 178.484 142.299 177.104C142.299 176.504 142.614 174.194 143.244 170.174C143.874 166.154 144.189 162.959 144.189 160.589C144.189 158.189 143.934 155.984 143.424 153.974C145.614 154.664 147.144 155.654 148.014 156.944C148.884 158.204 149.319 159.659 149.319 161.309C149.319 162.929 149.139 164.819 148.779 166.979C149.769 163.619 151.329 160.769 153.459 158.429C155.589 156.089 157.539 154.919 159.309 154.919ZM190.362 181.649C188.652 181.649 187.422 181.349 186.672 180.749C185.922 180.149 185.547 179.144 185.547 177.734C185.547 176.324 186.042 172.064 187.032 164.954C188.052 157.814 188.562 152.729 188.562 149.699C188.562 146.639 188.352 144.644 187.932 143.714C190.962 143.954 192.972 145.139 193.962 147.269C196.122 146.069 198.567 145.469 201.297 145.469C204.057 145.469 206.307 146.264 208.047 147.854C209.817 149.414 210.702 151.229 210.702 153.299C210.702 155.369 209.997 157.439 208.587 159.509C207.177 161.549 205.077 163.094 202.287 164.144L202.872 165.899C203.952 169.259 205.512 172.589 207.552 175.889C209.592 179.159 211.257 181.394 212.547 182.594C211.437 182.894 210.327 183.044 209.217 183.044C208.137 183.044 207.042 182.684 205.932 181.964C204.822 181.274 203.892 180.509 203.142 179.669C202.422 178.829 201.612 177.494 200.712 175.664C199.812 173.834 199.167 172.409 198.777 171.389C198.387 170.369 197.952 169.244 197.472 168.014C197.022 166.784 196.782 166.124 196.752 166.034C196.722 165.944 196.677 165.839 196.617 165.719C196.557 165.569 196.512 165.434 196.482 165.314C195.822 165.314 195.177 165.314 194.547 165.314L194.412 163.244C198.222 163.094 201.057 161.729 202.917 159.149C203.937 157.709 204.447 156.239 204.447 154.739C204.447 154.169 204.387 153.614 204.267 153.074C203.757 151.124 202.542 149.909 200.622 149.429C200.082 149.279 199.332 149.204 198.372 149.204C197.412 149.204 196.137 149.519 194.547 150.149C194.547 151.289 194.112 155.024 193.242 161.354C192.402 167.654 191.982 172.919 191.982 177.149C191.982 179.039 192.072 180.509 192.252 181.559C191.292 181.619 190.662 181.649 190.362 181.649ZM220.908 172.379C220.908 173.789 221.163 174.944 221.673 175.844C222.213 176.714 222.963 177.149 223.923 177.149C225.333 177.149 226.668 176.324 227.928 174.674C229.218 173.024 230.238 170.909 230.988 168.329C231.768 165.749 232.158 163.304 232.158 160.994C232.158 158.654 232.068 156.764 231.888 155.324C232.788 155.264 233.418 155.234 233.778 155.234C235.308 155.234 236.463 155.519 237.243 156.089C238.023 156.659 238.413 157.679 238.413 159.149C238.413 159.719 238.053 162.044 237.333 166.124C236.613 170.174 236.253 173.429 236.253 175.889C236.253 178.319 236.718 180.479 237.648 182.369C235.398 181.979 233.748 181.154 232.698 179.894C231.648 178.604 231.123 176.759 231.123 174.359C231.123 173.939 231.183 173.129 231.303 171.929C230.493 174.779 229.053 177.074 226.983 178.814C224.913 180.554 222.873 181.424 220.863 181.424C218.883 181.424 217.278 180.689 216.048 179.219C214.848 177.719 214.248 175.604 214.248 172.874C214.248 170.144 214.728 167.504 215.688 164.954C216.678 162.374 218.148 160.199 220.098 158.429C222.048 156.629 224.223 155.729 226.623 155.729C228.003 155.729 229.413 156.059 230.853 156.719C227.823 157.799 225.408 159.929 223.608 163.109C221.808 166.259 220.908 169.349 220.908 172.379ZM249.382 171.794C249.382 175.364 250.462 177.149 252.622 177.149C253.762 177.149 254.872 176.534 255.952 175.304C257.032 174.074 257.902 172.424 258.562 170.354C259.252 168.284 259.837 166.079 260.317 163.739C260.827 161.369 261.202 158.864 261.442 156.224C261.862 151.124 262.072 147.149 262.072 144.299C262.072 141.419 261.952 139.259 261.712 137.819C263.872 138.299 265.387 139.319 266.257 140.879C267.127 142.439 267.562 144.404 267.562 146.774C267.562 149.144 267.052 153.554 266.032 160.004C265.042 166.454 264.547 171.164 264.547 174.134C264.547 177.104 264.682 179.624 264.952 181.694C262.822 181.124 261.352 180.104 260.542 178.634C259.762 177.134 259.372 175.259 259.372 173.009C258.442 175.589 257.047 177.629 255.187 179.129C253.327 180.629 251.407 181.379 249.427 181.379C247.447 181.379 245.827 180.629 244.567 179.129C243.337 177.599 242.722 175.364 242.722 172.424C242.722 167.774 243.997 163.784 246.547 160.454C249.097 157.094 252.112 155.414 255.592 155.414C256.582 155.414 258.142 155.654 260.272 156.134C258.412 156.614 256.747 157.454 255.277 158.654C253.837 159.824 252.712 161.174 251.902 162.704C250.222 165.734 249.382 168.764 249.382 171.794ZM272.747 173.504C272.747 172.244 272.987 169.964 273.467 166.664C273.947 163.364 274.187 160.799 274.187 158.969C274.187 157.139 274.097 155.729 273.917 154.739C274.577 154.679 275.192 154.649 275.762 154.649C277.502 154.649 278.702 154.949 279.362 155.549C280.052 156.119 280.397 157.109 280.397 158.519C280.397 158.969 280.022 161.339 279.272 165.629C278.552 169.889 278.177 173.414 278.147 176.204C278.147 178.964 278.327 180.749 278.687 181.559C276.347 180.959 274.772 180.059 273.962 178.859C273.152 177.629 272.747 175.844 272.747 173.504ZM278.867 150.869C275.777 150.869 274.232 149.789 274.232 147.629C274.232 146.849 274.457 145.784 274.907 144.434C275.747 144.314 276.482 144.254 277.112 144.254C280.202 144.254 281.747 145.334 281.747 147.494C281.747 148.274 281.522 149.339 281.072 150.689C280.232 150.809 279.497 150.869 278.867 150.869ZM296.07 157.574C295.23 157.574 294.48 157.859 293.82 158.429C293.16 158.969 292.83 159.749 292.83 160.769C292.83 161.789 293.175 162.749 293.865 163.649C294.585 164.549 295.455 165.344 296.475 166.034C297.495 166.694 298.515 167.384 299.535 168.104C300.585 168.794 301.5 169.664 302.28 170.714C303.06 171.734 303.495 172.874 303.585 174.134C303.585 176.294 302.655 178.109 300.795 179.579C298.935 181.049 296.625 181.784 293.865 181.784C291.105 181.784 288.93 181.229 287.34 180.119C285.78 179.009 285 177.734 285 176.294C285 174.854 285.435 173.699 286.305 172.829C287.205 171.929 288.315 171.479 289.635 171.479C290.325 171.479 290.97 171.599 291.57 171.839C290.61 172.859 290.13 173.939 290.13 175.079C290.13 176.219 290.445 177.134 291.075 177.824C291.705 178.514 292.56 178.859 293.64 178.859C294.72 178.859 295.62 178.589 296.34 178.049C297.09 177.479 297.465 176.759 297.465 175.889C297.465 174.989 297.21 174.194 296.7 173.504C296.19 172.814 295.545 172.214 294.765 171.704C294.015 171.164 293.19 170.564 292.29 169.904C291.39 169.244 290.55 168.584 289.77 167.924C289.02 167.234 288.39 166.379 287.88 165.359C287.37 164.309 287.115 163.169 287.115 161.939C287.115 159.809 287.985 158.069 289.725 156.719C291.495 155.339 293.685 154.649 296.295 154.649C298.935 154.649 300.855 155.159 302.055 156.179C303.285 157.199 303.9 158.399 303.9 159.779C303.9 161.129 303.465 162.284 302.595 163.244C301.755 164.204 300.66 164.684 299.31 164.684C298.65 164.684 297.9 164.549 297.06 164.279C297.72 163.709 298.23 163.064 298.59 162.344C298.95 161.594 299.13 160.859 299.13 160.139C299.13 159.419 298.83 158.819 298.23 158.339C297.63 157.829 296.91 157.574 296.07 157.574ZM315.238 166.979C316.228 163.589 317.773 160.739 319.873 158.429C321.973 156.089 323.923 154.919 325.723 154.919C327.553 154.919 328.843 155.474 329.593 156.584C330.373 157.664 330.763 159.149 330.763 161.039C330.763 162.899 330.463 165.524 329.863 168.914C329.293 172.304 329.008 174.779 329.008 176.339C329.008 177.869 329.203 178.994 329.593 179.714C329.983 180.404 330.643 181.004 331.573 181.514C331.183 181.544 330.628 181.559 329.908 181.559C327.388 181.559 325.588 181.169 324.508 180.389C323.458 179.609 322.933 178.244 322.933 176.294C322.933 175.184 323.233 173.024 323.833 169.814C324.433 166.574 324.733 164.159 324.733 162.569C324.733 160.589 324.133 159.599 322.933 159.599C322.213 159.599 321.418 160.004 320.548 160.814C319.678 161.624 318.838 162.734 318.028 164.144C317.248 165.524 316.588 167.309 316.048 169.499C315.508 171.689 315.238 173.879 315.238 176.069C315.238 178.229 315.328 179.834 315.508 180.884C314.548 180.944 313.918 180.974 313.618 180.974C311.908 180.974 310.678 180.689 309.928 180.119C309.178 179.519 308.803 178.574 308.803 177.284C308.803 175.994 309.058 173.534 309.568 169.904C311.188 158.744 311.998 150.269 311.998 144.479C311.998 141.869 311.818 140.114 311.458 139.214C313.708 139.814 315.238 140.729 316.048 141.959C316.888 143.159 317.308 144.869 317.308 147.089C317.308 148.589 317.008 151.739 316.408 156.539C315.838 161.339 315.448 164.819 315.238 166.979Z" fill="#333C4C"/>
<path d="M196.254 42.9127C186.25 44.9312 185.4 55.016 186.224 59.8061C205.105 60.5205 202.39 54.7323 206.441 50.3663C218.067 50.142 220.444 41.6548 220.943 37.4332C231.964 28.0655 216.44 24.0343 214.437 29.537C203.937 27.502 196.721 38.037 196.254 42.9127Z" fill="#54945A" stroke="white"/>
<path d="M216.26 36.0926C203.589 37.8759 180.222 62.1864 170.23 74.1721L173.114 76.9789C178.279 65.7607 204.101 45.0828 216.26 36.0926Z" fill="#8DD093" stroke="white"/>
<path d="M169.732 41.6014C177.689 45.554 176.133 54.2275 174.36 58.0702C164.78 58.0607 156.454 52.1807 158.403 45.4493C146.877 45.2992 149.676 35.0905 150.208 31.4277C143.051 21.0647 152.519 22.9053 157.457 26.2532C166.743 26.9084 172.551 30.2975 169.732 41.6014Z" fill="#54945A" stroke="white"/>
<path d="M154.306 32.7153C166.369 37.6945 182.944 67.3205 189.603 81.5356L185.99 83.5263C183.903 71.2941 163.918 44.5719 154.306 32.7153Z" fill="#8DD093" stroke="white"/>
<path d="M190.009 40.6864C194.066 51.4243 184.941 58.0272 179.871 59.9864C170.797 51.4323 174.263 45.3734 176.01 38.9882C169.268 27.7262 176.737 16.799 180.472 13.899C182.827 -2.03182 190.179 8.10831 191.908 15.5974C200.133 24.4838 194.387 37.4406 190.009 40.6864Z" fill="#54945A" stroke="white"/>
<path d="M185.651 14.4731C191.528 27.6305 182.285 63.9597 176.814 80.4077L172.407 79.2559C180.033 67.8716 184.337 31.2759 185.651 14.4731Z" fill="#8DD093" stroke="white"/>
<ellipse cx="175.691" cy="100.024" rx="34.792" ry="37.9549" transform="rotate(7.5 175.691 100.024)" fill="url(#paint0_linear_62_29)"/>
<path d="M170.812 88.2401C170.308 90.1204 168.095 86.6536 164.479 85.6848C160.864 84.716 157.214 86.6121 157.718 84.7317C158.222 82.8514 161.561 82.1124 165.177 83.0812C168.793 84.0501 171.315 86.3598 170.812 88.2401Z" fill="black"/>
<path d="M157.059 84.2826C156.173 82.8912 157.742 81.2434 159.175 82.0588V82.0588C160.191 82.6366 160.251 84.0785 159.287 84.7387V84.7387C158.549 85.2441 157.539 85.0373 157.059 84.2826V84.2826Z" fill="black"/>
<path d="M182.376 91.3386C181.872 93.2189 185.521 91.3229 189.137 92.2917C192.753 93.2605 194.965 96.7273 195.469 94.847C195.973 92.9666 193.45 90.6569 189.835 89.6881C186.219 88.7193 182.879 89.4582 182.376 91.3386Z" fill="black"/>
<path d="M196.265 94.788C197.727 94.0256 197.193 91.8144 195.544 91.8038V91.8038C194.375 91.7963 193.602 93.015 194.107 94.0689V94.0689C194.494 94.8756 195.472 95.2015 196.265 94.788V94.788Z" fill="black"/>
<path d="M179.087 100.604C178.355 103.336 175.547 104.957 172.815 104.225C170.083 103.493 168.462 100.685 169.194 97.9532" stroke="black" stroke-width="2"/>
<path d="M165.452 129.924L182.521 130.578C179.758 143.525 171.925 154.937 168.353 159.025C173.962 150.471 168.756 136.06 165.452 129.924Z" fill="white"/>
<defs>
<linearGradient id="paint0_linear_62_29" x1="175.691" y1="62.0689" x2="175.691" y2="137.979" gradientUnits="userSpaceOnUse">
<stop stop-color="#FB6162"/>
<stop offset="0.848958" stop-color="white"/>
</linearGradient>
</defs>
</svg>
