<svg width="424" height="507" viewBox="0 0 424 507" fill="none" xmlns="http://www.w3.org/2000/svg">
<path d="M220.168 443C178.493 446.421 128.171 463.211 260.283 503" stroke="black" stroke-width="5"/>
<path d="M218.832 443C260.507 446.421 310.829 463.211 178.717 503" stroke="black" stroke-width="5"/>
<path d="M34 291.5C38.6667 300.833 58 319.9 98 321.5" stroke="black" stroke-width="5"/>
<path d="M21.4997 274C26.5 274 37.8991 278.2 35.4991 291C28.4991 288.833 9.49996 294 21.4997 274Z" stroke="black" stroke-width="5"/>
<path d="M34 291.5C26.1667 289.833 17.5 295 2 276" stroke="black" stroke-width="5"/>
<path d="M387.696 321.908C381.263 330.124 358.516 344.953 319 338.546" stroke="black" stroke-width="5"/>
<path d="M403.435 307.252C398.535 306.255 386.527 308.098 386.327 321.119C393.619 320.392 411.206 329.243 403.435 307.252Z" stroke="black" stroke-width="5"/>
<path d="M387.696 321.908C395.705 321.837 403.167 328.628 422.144 313.099" stroke="black" stroke-width="5"/>
<path d="M256.433 121.118C224.383 132.096 225.952 165.658 230.743 181.066C293.193 175.236 281.751 157.361 293.193 141.236C331.36 135.46 335.507 106.496 335.317 92.3854C367.533 56.7776 314.693 50.2361 310.482 69.2155C275.044 67.0671 255.858 104.868 256.433 121.118Z" fill="#54945A" stroke="white"/>
<path d="M319.324 90.0023C278.392 101.362 212.018 191.501 184.323 235.28L195.035 243.268C207.172 204.107 283.202 124.86 319.324 90.0023Z" fill="#8DD093" stroke="white"/>
<path d="M168.572 128.294C196.472 137.856 195.109 167.078 190.94 180.494C159.403 184.614 129.451 168.868 132.951 145.868C94.9512 150.368 99.7391 115.556 99.9028 103.27C71.8565 72.2628 103.814 74.2185 121.519 83.0977C152.367 81.2303 172.951 89.8684 168.572 128.294Z" fill="#54945A" stroke="white"/>
<path d="M113.951 105.731C155.811 116.893 223.201 207.22 251.278 251.121L240.249 259.238C228.08 219.882 150.723 140.591 113.951 105.731Z" fill="#8DD093" stroke="white"/>
<path d="M234.912 116.497C252.917 150.081 225.746 175.767 209.909 184.412C176.336 160.19 185.117 138.746 188.1 116.974C161.032 82.828 180.88 43.6264 191.916 32.4631C192.763 -20.9906 221.354 9.19824 230.29 33.098C261.214 58.7819 247.915 103.917 234.912 116.497Z" fill="#54945A" stroke="white"/>
<path d="M209.211 32.1084C234.256 72.867 219.577 196.444 208.696 252.95L193.691 251.069C213.859 210.295 212.167 87.9814 209.211 32.1084Z" fill="#8DD093" stroke="white"/>
<ellipse cx="213.5" cy="318" rx="115.5" ry="126" fill="url(#paint0_linear_51_53)"/>
<path d="M148.947 266.134C149.79 259.727 158.575 270.179 170.895 271.801C183.215 273.423 194.406 265.601 193.562 272.008C192.718 278.415 182.047 282.294 169.727 280.672C157.407 279.05 148.103 272.542 148.947 266.134Z" fill="black"/>
<path d="M277.579 283.069C278.422 276.662 267.232 284.484 254.912 282.862C242.592 281.24 233.807 270.788 232.964 277.196C232.12 283.603 241.424 290.112 253.744 291.734C266.064 293.356 276.735 289.476 277.579 283.069Z" fill="black"/>
<path d="M224.928 318.438C223.702 327.746 215.163 334.299 205.854 333.074C196.546 331.848 189.993 323.309 191.219 314" stroke="black" stroke-width="2"/>
<path d="M246.5 422L197 426.5C207 463.7 231.5 495.667 242.5 507C224.9 483 237.833 440.333 246.5 422Z" fill="white"/>
<defs>
<linearGradient id="paint0_linear_51_53" x1="213.5" y1="192" x2="213.5" y2="444" gradientUnits="userSpaceOnUse">
<stop stop-color="#FB6162"/>
<stop offset="0.848958" stop-color="white"/>
</linearGradient>
</defs>
</svg>
