<svg width="265" height="507" viewBox="0 0 265 507" fill="none" xmlns="http://www.w3.org/2000/svg">
<path d="M171.432 121.118C139.383 132.096 140.952 165.658 145.742 181.066C208.193 175.236 196.751 157.361 208.193 141.236C246.36 135.46 250.506 106.496 250.317 92.3854C282.533 56.7776 229.693 50.2361 225.482 69.2155C190.044 67.0671 170.858 104.868 171.432 121.118Z" fill="#54945A" stroke="white"/>
<path d="M234.324 90.0023C193.393 101.362 127.018 191.501 99.3235 235.28L110.035 243.268C122.173 204.107 198.202 124.86 234.324 90.0023Z" fill="#8DD093" stroke="white"/>
<path d="M83.5726 128.294C111.472 137.856 110.109 167.078 105.94 180.494C74.4033 184.614 44.4514 168.868 47.9514 145.868C9.95141 150.368 14.7394 115.556 14.9031 103.27C-13.1433 72.2628 18.8147 74.2185 36.5191 83.0977C67.3671 81.2303 87.9514 89.8684 83.5726 128.294Z" fill="#54945A" stroke="white"/>
<path d="M28.9515 105.731C70.8112 116.893 138.202 207.219 166.278 251.121L155.249 259.238C143.08 219.882 65.7228 140.591 28.9515 105.731Z" fill="#8DD093" stroke="white"/>
<path d="M149.912 116.497C167.917 150.081 140.746 175.767 124.909 184.412C91.3365 160.19 100.117 138.746 103.1 116.974C76.0323 82.828 95.8803 43.6264 106.916 32.4631C107.763 -20.9906 136.354 9.19824 145.29 33.098C176.214 58.7819 162.915 103.917 149.912 116.497Z" fill="#54945A" stroke="white"/>
<path d="M124.211 32.1085C149.256 72.8671 134.577 196.444 123.696 252.95L108.691 251.069C128.859 210.295 127.167 87.9815 124.211 32.1085Z" fill="#8DD093" stroke="white"/>
<ellipse cx="128.5" cy="318" rx="115.5" ry="126" fill="url(#paint0_linear_36_40)"/>
<path d="M107.335 281.33C106.491 287.737 97.7065 277.286 85.3864 275.664C73.0663 274.042 61.876 281.864 62.7195 275.457C63.563 269.049 74.2342 265.17 86.5543 266.792C98.8744 268.414 108.178 274.923 107.335 281.33Z" fill="black"/>
<path d="M51.9487 264.236C50.6094 262.637 52.3035 260.313 54.2351 261.098L71.1719 267.987C72.5407 268.543 72.8539 270.341 71.7541 271.328L65.3813 277.046C64.5394 277.801 63.2392 277.709 62.5128 276.842L51.9487 264.236Z" fill="black"/>
<path d="M146.737 286.518C145.894 292.925 157.084 285.103 169.404 286.725C181.724 288.347 190.509 298.799 191.352 292.391C192.196 285.984 182.892 279.475 170.572 277.853C158.252 276.231 147.581 280.111 146.737 286.518Z" fill="black"/>
<path d="M204.66 284.34C206.368 283.143 205.333 280.459 203.264 280.718L185.121 282.988C183.655 283.172 182.887 284.827 183.694 286.065L188.37 293.237C188.988 294.185 190.267 294.432 191.194 293.783L204.66 284.34Z" fill="black"/>
<path d="M139.928 318.438C138.703 327.746 130.163 334.299 120.855 333.074C111.546 331.848 104.994 323.309 106.219 314" stroke="black" stroke-width="2"/>
<path d="M161.5 422L112 426.5C122 463.7 146.5 495.667 157.5 507C139.9 483 152.833 440.333 161.5 422Z" fill="white"/>
<defs>
<linearGradient id="paint0_linear_36_40" x1="128.5" y1="192" x2="128.5" y2="444" gradientUnits="userSpaceOnUse">
<stop stop-color="#FB6162"/>
<stop offset="0.848958" stop-color="white"/>
</linearGradient>
</defs>
</svg>
