<svg width="363" height="507" viewBox="0 0 363 507" fill="none" xmlns="http://www.w3.org/2000/svg">
<path d="M69 301.5C55.3333 297 23.2 280.8 4 252" stroke="black" stroke-width="8"/>
<path d="M287.034 337.163C301.292 335.229 335.839 325.156 359.966 300.337" stroke="black" stroke-width="8"/>
<path d="M223.433 121.118C191.383 132.096 192.952 165.658 197.743 181.066C260.193 175.236 248.751 157.361 260.193 141.236C298.36 135.46 302.507 106.496 302.317 92.3854C334.533 56.7776 281.693 50.2361 277.482 69.2155C242.044 67.0671 222.858 104.868 223.433 121.118Z" fill="#54945A" stroke="white"/>
<path d="M286.324 90.0023C245.392 101.362 179.018 191.501 151.323 235.28L162.035 243.268C174.172 204.107 250.202 124.86 286.324 90.0023Z" fill="#8DD093" stroke="white"/>
<path d="M135.572 128.294C163.472 137.856 162.109 167.078 157.94 180.494C126.403 184.614 96.4512 168.868 99.9512 145.868C61.9512 150.368 66.7391 115.556 66.9028 103.27C38.8565 72.2628 70.8144 74.2185 88.5188 83.0977C119.367 81.2303 139.951 89.8684 135.572 128.294Z" fill="#54945A" stroke="white"/>
<path d="M80.9512 105.731C122.811 116.893 190.201 207.22 218.278 251.121L207.249 259.238C195.08 219.882 117.723 140.591 80.9512 105.731Z" fill="#8DD093" stroke="white"/>
<path d="M201.912 116.497C219.917 150.081 192.746 175.767 176.909 184.412C143.336 160.19 152.117 138.746 155.1 116.974C128.032 82.828 147.88 43.6264 158.916 32.4631C159.763 -20.9906 188.354 9.19824 197.29 33.098C228.214 58.7819 214.915 103.917 201.912 116.497Z" fill="#54945A" stroke="white"/>
<path d="M176.211 32.1084C201.256 72.867 186.577 196.444 175.696 252.95L160.691 251.069C180.859 210.295 179.167 87.9814 176.211 32.1084Z" fill="#8DD093" stroke="white"/>
<ellipse cx="180.5" cy="318" rx="115.5" ry="126" fill="url(#paint0_linear_51_51)"/>
<path d="M191.928 318.438C190.702 327.746 182.163 334.299 172.854 333.074C163.546 331.848 156.993 323.309 158.219 314" stroke="black" stroke-width="2"/>
<path d="M213.5 422L164 426.5C174 463.7 198.5 495.667 209.5 507C191.9 483 204.833 440.333 213.5 422Z" fill="white"/>
<ellipse cx="137.5" cy="279" rx="19.5" ry="18" fill="black"/>
<ellipse cx="219.5" cy="289" rx="19.5" ry="18" fill="black"/>
<path d="M105.586 295.886C103.187 292.868 98.6665 292.192 95.4897 294.377L93.333 295.862L91.7029 293.811C89.3037 290.793 84.7849 290.118 81.6081 292.303C78.0339 294.763 77.3259 299.5 80.0249 302.896L90.3413 315.88L104.003 306.48C107.575 304.021 108.283 299.282 105.586 295.886Z" fill="white"/>
<path d="M119.924 323.303C117.984 320.862 114.329 320.316 111.76 322.083L110.016 323.283L108.698 321.625C106.758 319.184 103.104 318.638 100.535 320.405C97.6448 322.394 97.0724 326.225 99.2548 328.971L107.597 339.47L118.644 331.868C121.532 329.88 122.105 326.049 119.924 323.303Z" fill="white"/>
<path d="M254.924 323.76C252.984 321.319 249.329 320.773 246.76 322.54L245.016 323.74L243.698 322.082C241.758 319.641 238.104 319.095 235.535 320.862C232.645 322.851 232.072 326.682 234.255 329.428L242.597 339.927L253.644 332.326C256.532 330.337 257.105 326.506 254.924 323.76Z" fill="white"/>
<path d="M283.586 307.886C281.187 304.868 276.666 304.192 273.49 306.377L271.333 307.862L269.703 305.811C267.304 302.793 262.785 302.118 259.608 304.303C256.034 306.763 255.326 311.5 258.025 314.896L268.341 327.88L282.003 318.48C285.575 316.021 286.283 311.282 283.586 307.886Z" fill="white"/>
<defs>
<linearGradient id="paint0_linear_51_51" x1="180.5" y1="192" x2="180.5" y2="444" gradientUnits="userSpaceOnUse">
<stop stop-color="#FB6162"/>
<stop offset="0.848958" stop-color="white"/>
</linearGradient>
</defs>
</svg>
