<svg width="20" height="75" viewBox="0 0 20 75" fill="none" xmlns="http://www.w3.org/2000/svg">
<rect x="0.25" y="0.25" width="19.5" height="74.5" fill="#CDBCDC" stroke="#443730" stroke-width="0.5"/>
<path d="M15.25 16H4.75C4.54688 16 4.37109 15.9382 4.22266 15.8145C4.07422 15.6908 4 15.5426 4 15.3701C4 15.1976 4.07422 15.0511 4.22266 14.9307C4.37109 14.8102 4.54688 14.75 4.75 14.75H7L8.66406 8.74414L7 9.125H6.625C6.52344 9.125 6.43555 9.09408 6.36133 9.03223C6.28711 8.97038 6.25 8.89714 6.25 8.8125C6.25 8.72786 6.28711 8.65462 6.36133 8.59277C6.43555 8.53092 6.52344 8.5 6.625 8.5L10 6C10.2031 6 10.3789 6.06185 10.5273 6.18555C10.6758 6.30924 10.75 6.45573 10.75 6.625L13 14.75H15.25C15.4609 14.75 15.6387 14.8102 15.7832 14.9307C15.9277 15.0511 16 15.1992 16 15.375C16 15.5508 15.9277 15.6989 15.7832 15.8193C15.6387 15.9398 15.4609 16 15.25 16Z" fill="#443730"/>
</svg>
