<svg width="35" height="35" viewBox="0 0 35 35" fill="none" xmlns="http://www.w3.org/2000/svg">
<path d="M16.7241 27.5862C13.9655 27.4425 11.6379 26.3793 9.74138 24.3966C7.84483 22.4138 6.89655 20.0287 6.89655 17.2414C6.89655 14.3678 7.9023 11.9253 9.91379 9.91379C11.9253 7.9023 14.3678 6.89655 17.2414 6.89655C20.0287 6.89655 22.4138 7.84483 24.3966 9.74138C26.3793 11.6379 27.4425 13.9655 27.5862 16.7241L23.9655 15.6466C23.592 14.0948 22.7874 12.8236 21.5517 11.8328C20.3161 10.842 18.8793 10.346 17.2414 10.3448C15.3448 10.3448 13.7213 11.0201 12.3707 12.3707C11.0201 13.7213 10.3448 15.3448 10.3448 17.2414C10.3448 18.8793 10.8408 20.3161 11.8328 21.5517C12.8247 22.7874 14.096 23.592 15.6466 23.9655L16.7241 27.5862ZM17.2414 34.4828C14.8563 34.4828 12.6149 34.0299 10.5172 33.1241C8.41954 32.2184 6.59483 30.9902 5.0431 29.4397C3.49138 27.8879 2.26322 26.0632 1.35862 23.9655C0.454023 21.8678 0.00114943 19.6264 0 17.2414C0 14.8563 0.452874 12.6149 1.35862 10.5172C2.26437 8.41954 3.49253 6.59483 5.0431 5.0431C6.59483 3.49138 8.41954 2.26322 10.5172 1.35862C12.6149 0.454023 14.8563 0.00114943 17.2414 0C19.6264 0 21.8678 0.452874 23.9655 1.35862C26.0632 2.26437 27.8879 3.49253 29.4397 5.0431C30.9914 6.59483 32.2201 8.41954 33.1259 10.5172C34.0316 12.6149 34.4839 14.8563 34.4828 17.2414V18.0172C34.4828 18.2759 34.454 18.5345 34.3966 18.7931L31.0345 17.7586V17.2414C31.0345 13.3908 29.6983 10.1293 27.0259 7.4569C24.3534 4.78448 21.092 3.44828 17.2414 3.44828C13.3908 3.44828 10.1293 4.78448 7.4569 7.4569C4.78448 10.1293 3.44828 13.3908 3.44828 17.2414C3.44828 21.092 4.78448 24.3534 7.4569 27.0259C10.1293 29.6983 13.3908 31.0345 17.2414 31.0345H17.7586L18.7931 34.3966C18.5345 34.454 18.2759 34.4828 18.0172 34.4828H17.2414ZM31.3362 34.7414L24.569 27.9741L23.2759 31.8966C23.1322 32.2989 22.8592 32.4931 22.4569 32.4793C22.0546 32.4655 21.7816 32.2569 21.6379 31.8535L17.7155 18.7931C17.6006 18.477 17.6724 18.1897 17.931 17.931C18.1897 17.6724 18.477 17.6006 18.7931 17.7155L31.8535 21.6379C32.2557 21.7816 32.4644 22.0546 32.4793 22.4569C32.4943 22.8592 32.3 23.1322 31.8966 23.2759L27.9741 24.569L34.7414 31.3362C34.9138 31.5086 35 31.7098 35 31.9397C35 32.1695 34.9138 32.3707 34.7414 32.5431L32.5431 34.7414C32.3707 34.9138 32.1695 35 31.9397 35C31.7098 35 31.5086 34.9138 31.3362 34.7414Z" fill="#836761"/>
</svg>
