<svg width="20" height="75" viewBox="0 0 20 75" fill="none" xmlns="http://www.w3.org/2000/svg">
<rect x="0.25" y="0.25" width="19.5" height="74.5" fill="#9AB2D6" stroke="#443730" stroke-width="0.5"/>
<path d="M11.2653 13.8126V15.6875C11.2607 15.8583 11.1083 15.9958 10.9199 16H8.84409C8.75316 15.998 8.66655 15.9645 8.60218 15.9065C8.53782 15.8485 8.50062 15.7704 8.49827 15.6883V13.8131C8.50289 13.6422 8.65526 13.5051 8.84409 13.5009H10.9218C11.1111 13.5051 11.2635 13.6426 11.2681 13.8131L11.2653 13.8126ZM14 9.12581C14.0005 9.62013 13.8466 10.1046 13.5558 10.5235L13.5628 10.5126C13.43 10.6855 13.2714 10.8409 13.0914 10.9744L13.0867 10.9777C12.9385 11.0952 12.7765 11.2069 12.6056 11.3086L12.589 11.3177C12.4619 11.388 12.2858 11.4804 12.0608 11.5949C11.823 11.7172 11.6211 11.8893 11.4721 12.0966L11.468 12.1024C11.3385 12.2526 11.2563 12.4316 11.2302 12.6204L11.2297 12.6254C11.2282 12.7186 11.1914 12.8084 11.1254 12.88L11.1259 12.8792C11.0992 12.9153 11.0633 12.9451 11.0212 12.9662C10.9791 12.9872 10.932 12.9988 10.8839 13H8.80623C8.75834 12.997 8.71232 12.982 8.67329 12.9568C8.63425 12.9315 8.60372 12.897 8.58508 12.8571L8.58461 12.8554C8.52608 12.7669 8.49468 12.666 8.49366 12.5629V12.2108C8.50391 11.7537 8.70491 11.3169 9.05648 10.9877L9.05602 10.9881C9.3914 10.6345 9.80564 10.3486 10.2717 10.1493L10.2939 10.1409C10.5669 10.0419 10.8143 9.89312 11.0206 9.7038L11.0211 9.70338C11.1724 9.53593 11.2496 9.32374 11.2376 9.10789V9.10997C11.2301 8.9915 11.1897 8.87663 11.1201 8.77597C11.0504 8.67532 10.9538 8.59212 10.8391 8.53407L10.835 8.5324C10.561 8.36326 10.2351 8.27596 9.90326 8.28279H9.90464C9.57217 8.27093 9.24365 8.3512 8.96322 8.51281L8.96968 8.50906C8.62862 8.77202 8.32177 9.0691 8.05503 9.39459L8.04349 9.40918C8.01263 9.4474 7.97231 9.47861 7.92574 9.50031C7.87917 9.52201 7.82764 9.53361 7.77524 9.53419C7.69744 9.53198 7.62192 9.51003 7.55731 9.47085L7.5587 9.47168L6.1394 8.49531C6.06876 8.4489 6.02077 8.37961 6.00551 8.30195L6.00505 8.30029C5.99046 8.22419 6.00774 8.14592 6.05353 8.08068L6.0526 8.08193C6.81765 6.83219 8.26834 6 9.93511 6C9.98267 6 10.0298 6.00083 10.0769 6.00208H10.0699C10.5563 6.00427 11.0379 6.08938 11.4892 6.25295L11.4629 6.24461C11.9225 6.40157 12.352 6.62246 12.7358 6.89928L12.7266 6.89261C13.0976 7.16184 13.406 7.49449 13.6343 7.87148L13.6436 7.88857C13.8666 8.2457 13.9982 8.67242 13.9986 9.12664L14 9.12581Z" fill="#443730"/>
</svg>
