<svg width="20" height="75" viewBox="0 0 20 75" fill="none" xmlns="http://www.w3.org/2000/svg">
<rect x="0.25" y="0.25" width="19.5" height="74.5" fill="#AAD59F" stroke="#443730" stroke-width="0.5"/>
<path d="M7.6 6C7.17565 6 6.76869 6.15804 6.46863 6.43936C6.16857 6.72068 6 7.10222 6 7.50006V15.5837C6.00015 15.6547 6.01965 15.7245 6.05663 15.7864C6.09362 15.8484 6.14687 15.9004 6.21134 15.9377C6.2758 15.9749 6.34934 15.9961 6.42499 15.9992C6.50063 16.0023 6.57586 15.9872 6.64356 15.9554L10 14.3837L13.3573 15.9563C13.4251 15.9879 13.5003 16.0028 13.5759 15.9996C13.6515 15.9963 13.7249 15.975 13.7893 15.9377C13.8536 15.9004 13.9068 15.8483 13.9436 15.7864C13.9805 15.7244 13.9999 15.6547 14 15.5837V7.50006C14 7.10222 13.8314 6.72068 13.5314 6.43936C13.2313 6.15804 12.8243 6 12.4 6H7.6Z" fill="#443730"/>
</svg>
