<svg width="74" height="81" viewBox="0 0 74 81" fill="none" xmlns="http://www.w3.org/2000/svg">
<path d="M51.6887 75.8281L71.4271 21.5973C71.4271 21.5973 70.2186 20.9307 69.5655 20.1456C68.6418 19.0352 68.822 17.8106 68.822 17.8106L21.9254 5.3154L3.28878 54.8574L6.43151 59.3559L51.6887 75.8281Z" fill="white" stroke="#836761" stroke-width="1.5"/>
<rect x="22.7239" width="49.9085" height="58.1962" transform="rotate(20 22.7239 0)" fill="#836761"/>
<path d="M19.2133 61.6853L13.5854 59.637L11.0974 66.4728L14.3379 66.3251L16.7253 68.5212L19.2133 61.6853Z" fill="#836761"/>
<path d="M71.1222 42.2982C68.091 42.2982 67.3069 44.0487 66.5753 44.976C61.119 51.938 54.9161 51.4125 51.4189 48.3232C48.9939 46.181 43.0567 46.5591 40.7833 47.3959C37.752 48.5116 32.0545 48.5959 27.1688 46.9843C21.08 44.976 15.7753 38.4701 13.5018 35.3461C9.86429 30.5263 9.20841 26.1973 8.95579 23.9659C8.42537 19.2799 10.9515 11.9062 18.8328 13.5128C26.7141 15.1195 29.1896 24.4469 29.4422 28.9097C29.6948 32.0337 31.7157 37.6122 37.7782 34.9345C43.8408 32.2569 49.3981 34.7114 51.4189 36.2734C53.945 38.728 59.6034 42.9677 62.0284 40.2899C64.4534 37.6122 68.8225 37.3544 71.1222 38.2817C75.9723 40.4238 73.7949 42.2982 71.1222 42.2982Z" fill="#FDCEBA"/>
<circle cx="12.8745" cy="21.2612" r="1.32881" fill="#443730"/>
<circle cx="22.1762" cy="21.2612" r="1.32881" fill="#443730"/>
<path d="M20.8472 27.905H15.532C15.8273 28.7909 16.7722 30.5627 18.1896 30.5627C19.607 30.5627 20.5519 28.7909 20.8472 27.905Z" fill="#443730"/>
<circle cx="11.5457" cy="21.2613" r="5.06526" stroke="#443730" stroke-width="0.5"/>
<circle cx="23.505" cy="21.2613" r="5.06526" stroke="#443730" stroke-width="0.5"/>
<path d="M16.8611 21.261H18.8543" stroke="#443730" stroke-width="0.5"/>
</svg>
