<svg width="401" height="376" viewBox="0 0 401 376" fill="none" xmlns="http://www.w3.org/2000/svg">
<path d="M208.5 0C102.185 0 16 86.1852 16 192.5C16 246.224 38.0079 294.807 73.5 329.727H343.5C378.992 294.807 401 246.224 401 192.5C401 86.1852 314.815 0 208.5 0Z" fill="#949DA9"/>
<path d="M124.98 215.003C127.214 234.677 111.326 252.896 103.103 259.547C121.877 278.88 187.866 314.483 292.5 302.234C279.84 287.386 283.191 260.165 286.449 248.411C292.237 227.531 292.035 188.372 286.449 173.06C278.692 151.796 282.324 132.715 279.933 109.677C273.23 45.0889 242.584 36.3659 229.241 40.0778C185.675 31.9115 163.923 78.8986 158.027 105.501C153.502 125.917 154.095 142.801 140.34 159.324C129.169 173.708 124.669 205.723 124.98 215.003Z" fill="black"/>
<path d="M181.133 89.1426C191.677 58.1637 218.563 56.0745 230.682 57.3338C256.599 66.1376 261.121 92.9205 261.121 108.977C261.121 140.144 243.59 160.136 233.44 165.645C218.17 178.112 205.177 167.377 198.36 160.451C174.728 142.695 176.285 105.514 181.133 89.1426Z" fill="#EFB191"/>
<path d="M167.602 105.915C171.864 84.6029 188.371 48.6215 225.819 50.9049C245.961 50.9049 263.922 65.4739 267.408 106.828" stroke="#F6DADA" stroke-width="5"/>
<path d="M190.893 86.734C203.223 80.7971 222.099 62.0732 227.427 55.6797L206.42 57.5064L190.893 70.2935L158.925 113.678L168.515 114.592C170.799 107.285 179.852 92.05 190.893 86.734Z" fill="black"/>
<path d="M247.064 82.1672C237.154 74.9598 223.621 64.3567 218.294 57.9631L233.157 56.3438L250.511 69.1308L271.207 108.06L261.222 109.111C258.938 101.805 257.111 89.4741 247.064 82.1672Z" fill="black"/>
<path d="M305.976 281.28C322.417 172.133 276.085 182.637 236.81 179.44L237.931 148.386L199.819 156.606V176.451L163.492 175.33C140.201 174.417 129.992 183.55 125.587 189.944C102.936 222.825 96.3597 268.188 95.9031 286.76L146.138 359.372H269.442C292.733 353.436 300.953 308.681 305.976 281.28Z" fill="#EFB191"/>
<path d="M305.976 279.06C322.417 169.914 276.085 182.637 236.81 179.44C225.819 185.948 210.129 187.629 199.819 176.058L163.492 174.937C140.201 174.024 129.992 183.157 125.587 189.551C113.166 206.357 105.95 227.684 104.58 236.057L158.925 246.561L137.284 323.74H244.324L258.647 272.135L305.976 279.06Z" fill="#F6DADA"/>
<path d="M1.16904 247.945C0.563404 244.856 2.92807 241.982 6.0756 241.982H188.27C190.661 241.982 192.717 243.675 193.177 246.02L218.534 375.344H30.2642C27.8737 375.344 25.8176 373.652 25.3577 371.307L1.16904 247.945Z" fill="#7C7C7C"/>
<path d="M28.3142 363.904C28.3142 361.142 30.5528 358.904 33.3142 358.904H263.528C266.29 358.904 268.528 361.142 268.528 363.904V370.344C268.528 373.106 266.29 375.344 263.528 375.344H33.3142C30.5528 375.344 28.3142 373.106 28.3142 370.344V363.904Z" fill="#7C7C7C"/>
<path d="M86.9894 310.184L87.0104 306.934L98.3533 302.257L98.3304 305.811L90.8438 308.552L90.9621 308.381L90.9594 308.795L90.8434 308.615L98.2939 311.46L98.2711 315.007L86.9894 310.184ZM108.896 298.403L103.616 317.525L100.359 317.504L105.638 298.382L108.896 298.403ZM122.235 310.411L110.892 315.088L110.915 311.541L118.401 308.792L118.291 308.971L118.294 308.557L118.402 308.73L110.951 305.893L110.974 302.338L122.256 307.161L122.235 310.411Z" fill="white"/>
</svg>
