<svg width="32" height="32" viewBox="0 0 32 32" fill="none" xmlns="http://www.w3.org/2000/svg">
<path d="M28.4444 3.3335C29.3333 3.3335 30.0864 3.64214 30.7037 4.25942C31.321 4.87671 31.6296 5.62979 31.6296 6.51868V25.4816C31.6296 26.3705 31.321 27.1236 30.7037 27.7409C30.0864 28.3582 29.3333 28.6668 28.4444 28.6668H3.18518C2.2963 28.6668 1.54321 28.3582 0.925926 27.7409C0.308642 27.1236 0 26.3705 0 25.4816V6.51868C0 5.62979 0.308642 4.87671 0.925926 4.25942C1.54321 3.64214 2.2963 3.3335 3.18518 3.3335H28.4444ZM28.4444 9.70387V6.51868L15.7778 14.4446L3.18518 6.51868V9.70387L15.7778 17.5557L28.4444 9.70387Z" fill="#293C53"/>
</svg>
