<svg width="258" height="79" viewBox="0 0 258 79" fill="none" xmlns="http://www.w3.org/2000/svg">
<path d="M99.66 47V33.92H101.98V39.18H107.28V33.92H109.6V47H107.28V41.2H101.98V47H99.66ZM115.602 40.04L115.142 41.64H118.482L118.022 40.04C117.808 39.3467 117.602 38.6333 117.402 37.9C117.215 37.1667 117.028 36.44 116.842 35.72H116.762C116.588 36.4533 116.402 37.1867 116.202 37.92C116.015 38.64 115.815 39.3467 115.602 40.04ZM120.022 47L119.002 43.46H114.602L113.582 47H111.222L115.482 33.92H118.202L122.462 47H120.022ZM124.074 47V33.92H126.454L130.534 41.28L131.874 44.06H131.954C131.901 43.3933 131.834 42.6667 131.754 41.88C131.687 41.0933 131.654 40.3333 131.654 39.6V33.92H133.874V47H131.494L127.414 39.64L126.074 36.86H125.994C126.047 37.5533 126.107 38.28 126.174 39.04C126.254 39.8 126.294 40.5467 126.294 41.28V47H124.074ZM137.199 47V33.92H139.579L143.659 41.28L144.999 44.06H145.079C145.026 43.3933 144.959 42.6667 144.879 41.88C144.812 41.0933 144.779 40.3333 144.779 39.6V33.92H146.999V47H144.619L140.539 39.64L139.199 36.86H139.119C139.172 37.5533 139.232 38.28 139.299 39.04C139.379 39.8 139.419 40.5467 139.419 41.28V47H137.199ZM153.004 40.04L152.544 41.64H155.884L155.424 40.04C155.211 39.3467 155.004 38.6333 154.804 37.9C154.617 37.1667 154.431 36.44 154.244 35.72H154.164C153.991 36.4533 153.804 37.1867 153.604 37.92C153.417 38.64 153.217 39.3467 153.004 40.04ZM157.424 47L156.404 43.46H152.004L150.984 47H148.624L152.884 33.92H155.604L159.864 47H157.424ZM161.476 47V33.92H163.796V39.18H169.096V33.92H171.416V47H169.096V41.2H163.796V47H161.476ZM187.982 50.48C186.689 50.48 185.595 50.1667 184.702 49.54C183.809 48.9133 183.155 48.1133 182.742 47.14C181.329 46.9 180.195 46.1867 179.342 45C178.489 43.8133 178.062 42.28 178.062 40.4C178.062 38.2933 178.595 36.6467 179.662 35.46C180.742 34.2733 182.129 33.68 183.822 33.68C185.529 33.68 186.915 34.2733 187.982 35.46C189.062 36.6467 189.602 38.2933 189.602 40.4C189.602 42.2267 189.202 43.72 188.402 44.88C187.602 46.04 186.535 46.7733 185.202 47.08C185.509 47.6 185.935 47.98 186.482 48.22C187.029 48.46 187.615 48.58 188.242 48.58C188.762 48.58 189.235 48.5133 189.662 48.38L190.082 50.1C189.869 50.1933 189.575 50.28 189.202 50.36C188.842 50.44 188.435 50.48 187.982 50.48ZM183.822 45.34C184.849 45.34 185.669 44.9 186.282 44.02C186.895 43.14 187.202 41.9333 187.202 40.4C187.202 38.9333 186.895 37.7867 186.282 36.96C185.669 36.12 184.849 35.7 183.822 35.7C182.795 35.7 181.975 36.12 181.362 36.96C180.749 37.7867 180.442 38.9333 180.442 40.4C180.442 41.9333 180.749 43.14 181.362 44.02C181.975 44.9 182.795 45.34 183.822 45.34ZM197.119 47.24C195.612 47.24 194.405 46.78 193.499 45.86C192.605 44.94 192.159 43.4067 192.159 41.26V33.92H194.479V41.44C194.479 42.8533 194.719 43.84 195.199 44.4C195.692 44.9467 196.332 45.22 197.119 45.22C197.919 45.22 198.572 44.9467 199.079 44.4C199.585 43.84 199.839 42.8533 199.839 41.44V33.92H202.059V41.26C202.059 43.4067 201.612 44.94 200.719 45.86C199.839 46.78 198.639 47.24 197.119 47.24ZM205.324 47V33.92H207.644V47H205.324ZM210.969 47V33.92H213.349L217.429 41.28L218.769 44.06H218.849C218.795 43.3933 218.729 42.6667 218.649 41.88C218.582 41.0933 218.549 40.3333 218.549 39.6V33.92H220.769V47H218.389L214.309 39.64L212.969 36.86H212.889C212.942 37.5533 213.002 38.28 213.069 39.04C213.149 39.8 213.189 40.5467 213.189 41.28V47H210.969ZM226.734 47V35.88H222.954V33.92H232.834V35.88H229.054V47H226.734ZM239.564 47.24C237.871 47.24 236.484 46.6333 235.404 45.42C234.338 44.1933 233.804 42.52 233.804 40.4C233.804 38.2933 234.338 36.6467 235.404 35.46C236.484 34.2733 237.871 33.68 239.564 33.68C241.271 33.68 242.658 34.2733 243.724 35.46C244.804 36.6467 245.344 38.2933 245.344 40.4C245.344 42.52 244.804 44.1933 243.724 45.42C242.658 46.6333 241.271 47.24 239.564 47.24ZM239.564 45.22C240.591 45.22 241.411 44.7867 242.024 43.92C242.638 43.04 242.944 41.8667 242.944 40.4C242.944 38.9333 242.638 37.7867 242.024 36.96C241.411 36.12 240.591 35.7 239.564 35.7C238.538 35.7 237.718 36.12 237.104 36.96C236.491 37.7867 236.184 38.9333 236.184 40.4C236.184 41.8667 236.491 43.04 237.104 43.92C237.718 44.7867 238.538 45.22 239.564 45.22ZM251.781 47.24C249.941 47.24 248.367 46.6 247.061 45.32L248.421 43.74C248.887 44.18 249.421 44.54 250.021 44.82C250.621 45.0867 251.221 45.22 251.821 45.22C252.567 45.22 253.134 45.0667 253.521 44.76C253.907 44.4533 254.101 44.0467 254.101 43.54C254.101 42.9933 253.907 42.6 253.521 42.36C253.147 42.12 252.667 41.8733 252.081 41.62L250.281 40.84C249.641 40.5733 249.041 40.1667 248.481 39.62C247.921 39.0733 247.641 38.32 247.641 37.36C247.641 36.32 248.054 35.4467 248.881 34.74C249.707 34.0333 250.761 33.68 252.041 33.68C252.801 33.68 253.534 33.8333 254.241 34.14C254.947 34.4333 255.554 34.8333 256.061 35.34L254.881 36.82C254.467 36.4733 254.027 36.2 253.561 36C253.107 35.8 252.601 35.7 252.041 35.7C251.414 35.7 250.914 35.84 250.541 36.12C250.167 36.3867 249.981 36.76 249.981 37.24C249.981 37.7467 250.194 38.1267 250.621 38.38C251.047 38.6333 251.527 38.8667 252.061 39.08L253.841 39.82C254.614 40.1533 255.247 40.5933 255.741 41.14C256.234 41.6733 256.481 42.4133 256.481 43.36C256.481 44.4267 256.061 45.34 255.221 46.1C254.394 46.86 253.247 47.24 251.781 47.24Z" fill="#293C53"/>
<circle cx="39.5" cy="39.5" r="39" stroke="#293C53"/>
<path d="M44.39 40.335C44.93 40.335 45.2 41.13 45.2 42.72C45.2 45.03 44.6 47.01 43.4 48.66C42.23 50.31 40.7 51.135 38.81 51.135C36.92 51.135 35.345 50.475 34.085 49.155C32.855 47.805 32.24 46.08 32.24 43.98V37.59C32.24 34.02 31.34 32.235 29.54 32.235C27.95 32.235 26.645 33.045 25.625 34.665C24.605 36.285 24.095 39 24.095 42.81V50.505C23.795 50.925 23.27 51.135 22.52 51.135C21.77 51.135 21.17 50.91 20.72 50.46C20.27 49.98 20.045 49.29 20.045 48.39V25.845C20.045 21.945 20.42 19.125 21.17 17.385C21.92 15.615 23.36 14.73 25.49 14.73C26.63 14.73 27.515 15.21 28.145 16.17C28.775 17.13 29.09 18.495 29.09 20.265C29.09 23.475 27.425 26.745 24.095 30.075V34.035C25.355 31.785 27.35 30.66 30.08 30.66C32.03 30.66 33.575 31.275 34.715 32.505C35.885 33.735 36.47 35.505 36.47 37.815V44.205C36.47 45.915 36.74 47.205 37.28 48.075C37.82 48.945 38.615 49.38 39.665 49.38C40.715 49.38 41.645 48.675 42.455 47.265C43.295 45.825 43.715 43.605 43.715 40.605C43.745 40.425 43.97 40.335 44.39 40.335ZM24.095 27.915C26.135 25.275 27.155 22.71 27.155 20.22C27.155 17.73 26.615 16.485 25.535 16.485C24.935 16.485 24.545 17.175 24.365 18.555C24.185 19.935 24.095 23.055 24.095 27.915ZM60.8294 65.355C60.8294 66.255 60.6044 66.93 60.1544 67.38C59.7044 67.86 59.1344 68.1 58.4444 68.1C57.7544 68.1 57.1994 67.89 56.7794 67.47V48.03C55.5194 50.1 53.7794 51.135 51.5594 51.135C46.3094 51.135 43.6844 47.7 43.6844 40.83C43.6844 37.35 44.4944 34.785 46.1144 33.135C47.7644 31.485 49.9394 30.66 52.6394 30.66C54.7094 30.66 56.1794 31.095 57.0494 31.965C57.4394 31.095 58.0544 30.66 58.8944 30.66C59.7644 30.66 60.4094 30.87 60.8294 31.29V65.355ZM48.5894 46.365C49.0094 47.685 49.4894 48.525 50.0294 48.885C50.5694 49.215 51.3344 49.38 52.3244 49.38C53.3144 49.38 54.3044 48.72 55.2944 47.4C56.2844 46.08 56.7794 43.98 56.7794 41.1V38.4C56.7794 36.27 56.4194 34.74 55.6994 33.81C54.9794 32.88 54.1394 32.415 53.1794 32.415C52.2494 32.415 51.5144 32.505 50.9744 32.685C50.4344 32.865 49.9244 33.24 49.4444 33.81C48.4544 34.89 47.9594 37.23 47.9594 40.83C47.9594 43.2 48.1694 45.045 48.5894 46.365Z" fill="#293C53"/>
<path d="M23 30C17.25 35.1667 15.3333 40 0 40" stroke="#293C53"/>
<path d="M59 46C63.0263 52.5452 67.0526 54.2906 76 52.1088" stroke="#293C53"/>
</svg>
