<svg width="224" height="338" viewBox="0 0 224 338" fill="none" xmlns="http://www.w3.org/2000/svg">
<path d="M200.071 185.588C197.627 206.353 215.005 225.583 224 232.603C203.465 253.008 131.284 290.587 16.8314 277.658C30.6798 261.987 27.014 233.256 23.4502 220.849C17.1195 198.811 17.3406 157.48 23.4502 141.318C31.9348 118.874 27.9628 98.7353 30.5779 74.4187C37.7469 7.75906 76.6163 -2.98863 91.2113 0.929248C147.76 -7.37281 157.474 41.933 163.923 70.0111C168.872 91.5594 168.224 109.381 183.27 126.82C195.489 142.002 200.41 175.794 200.071 185.588Z" fill="black"/>
<path d="M138.648 52.7457C120.464 23.3031 102.103 24.1541 88.8463 25.4832C60.4979 34.7754 51.1551 56.7332 51.1551 73.6801C51.1551 106.577 70.3304 127.677 81.4328 133.493C98.1361 146.651 112.348 135.32 119.805 128.01C145.655 109.269 143.951 70.0249 138.648 52.7457Z" fill="#EFB191"/>
<path d="M127.991 53.205C114.504 46.9388 93.8565 27.1761 88.0286 20.4279L111.007 22.3559L127.991 35.8524L162.959 81.6439L152.468 82.608C149.971 74.8957 140.068 58.8159 127.991 53.205Z" fill="black"/>
<path d="M66.549 48.385C77.3892 40.7776 92.1917 29.5863 98.0196 22.8381L81.7618 21.1289L62.7795 34.6253L40.1411 75.7142L51.0635 76.8239C53.5611 69.1117 55.5593 56.0972 66.549 48.385Z" fill="black"/>
<path d="M6.61062 258.603C-10.9778 143.401 36.1571 151.415 78.1739 148.041L77.9863 117.1L119.398 116.866L119.568 144.885L154.544 144.715C179.461 143.751 192.406 152.362 195.095 160.139C207.467 195.927 206.398 184.383 202.82 257.455C199.242 330.528 169 338 169 338H105H41.0555C16.1385 331.734 11.9849 287.524 6.61062 258.603Z" fill="#EFB191"/>
<path d="M0.231037 217.61C-3.39501 142.964 36.2446 148.29 78.0874 148.058C90.3203 154.927 108.09 156.598 119.565 144.385L153.418 144.341C179.34 143.377 190.702 153.017 195.604 159.765C209.429 177.504 207.14 198.611 208.665 207.448L158.494 218.937L154.378 299.893L57.7785 300.429L49.9532 229.343L0.231037 217.61Z" fill="#949DA9"/>
</svg>
