<svg width="299" height="547" viewBox="0 0 299 547" fill="none" xmlns="http://www.w3.org/2000/svg">
<path d="M67.9629 421.617C62.0325 332.137 80.9357 323.325 91.1286 330.104L137.46 332.877L206.494 361.533C227.991 371.146 228.209 397.121 229.659 412.373C233.736 455.264 235.374 520.187 235.682 546.994H195.84L97.1516 530.231C95.1439 517.752 89.09 488.449 80.9356 471.071C72.7813 453.693 68.8895 430.861 67.9629 421.617Z" fill="#EFB191"/>
<path d="M54.784 367.062C61.0678 321.597 78.2793 328.511 85.9801 333.594L89.8993 427.59H73.5049L97.7541 504.289L92.6716 524.619C82.3218 509.464 72.6497 491.814 69.1073 484.883C67.6288 483.035 67.5672 477.644 67.7212 475.18C67.7212 468.896 66.4891 461.781 65.8731 459.009C53.3055 408.738 53.2439 376.765 54.784 367.062Z" fill="#EFB191"/>
<path d="M85.1655 327.317L85.2261 327.326L89.3845 429.438H72.99H68.8315L66.9833 422.59L57.2806 419.072C51.7888 396.431 52.729 378.613 54.2692 368.91C60.5407 323.534 74.835 325.73 85.1655 327.317Z" fill="#949DA9"/>
<path d="M67.0362 420.92C61.122 331.468 69.608 330.821 81.3596 326.663L137.467 332.611L206.312 361.258C227.751 370.868 228.29 398.742 229.414 412.083L233.834 466.662C233.834 466.662 221.797 471.361 209.886 470.762C198.09 470.169 184.321 463.727 184.321 463.727L195.816 546.994L89.2145 532.273C87.2123 519.797 89.23 488.135 81.098 470.762C72.9659 453.389 67.9602 430.161 67.0362 420.92Z" fill="#949DA9"/>
<path d="M65.6828 342.156C62.9267 366.275 43.521 376.902 49.0655 380.137C64.9118 396.482 118.764 426.261 207.085 415.905C216.326 414.821 200.616 404.163 201.977 370.4C202.715 352.099 206.692 329.32 201.977 316.374C192.882 291.401 198.495 272.586 196.477 253.108C190.819 198.502 164.951 191.127 153.689 194.266C116.915 187.361 98.5541 227.086 93.5775 249.577C89.7583 266.838 90.1873 274.79 78.648 295.082C68.0092 317.761 68.5232 317.299 65.6828 342.156Z" fill="black"/>
<circle cx="45.1431" cy="171.778" r="45.1431" fill="#293C53"/>
<circle cx="161.226" cy="123.704" r="40.4529" fill="#293C53"/>
<circle cx="68.5941" cy="75.6297" r="31.0726" fill="#293C53"/>
<circle cx="262.065" cy="95.5628" r="31.0726" fill="#293C53"/>
<circle cx="246.822" cy="195.23" r="36.9353" fill="#293C53"/>
<path d="M21.2225 176.294V163.204H22.8077V169.033H29.7879V163.204H31.3731V176.294H29.7879V170.439H22.8077V176.294H21.2225ZM33.8308 164.61V163.204H43.649V164.61H39.5325V176.294H37.9473V164.61H33.8308ZM46.0956 163.204H47.9876L52.4365 174.07H52.5899L57.0387 163.204H58.9308V176.294H57.4478V166.348H57.32L53.2291 176.294H51.7973L47.7064 166.348H47.5785V176.294H46.0956V163.204ZM62.1092 176.294V163.204H63.6945V174.888H69.7797V176.294H62.1092Z" fill="white"/>
<path d="M261.958 91.0781H260.373C260.279 90.6222 260.115 90.2216 259.881 89.8764C259.651 89.5312 259.37 89.2415 259.037 89.0071C258.709 88.7685 258.345 88.5895 257.944 88.4702C257.544 88.3509 257.126 88.2912 256.691 88.2912C255.899 88.2912 255.181 88.4915 254.537 88.892C253.898 89.2926 253.389 89.8828 253.01 90.6626C252.635 91.4425 252.447 92.3991 252.447 93.5327C252.447 94.6662 252.635 95.6229 253.01 96.4027C253.389 97.1825 253.898 97.7727 254.537 98.1733C255.181 98.5739 255.899 98.7741 256.691 98.7741C257.126 98.7741 257.544 98.7145 257.944 98.5952C258.345 98.4759 258.709 98.299 259.037 98.0646C259.37 97.826 259.651 97.5341 259.881 97.1889C260.115 96.8395 260.279 96.4389 260.373 95.9872H261.958C261.839 96.6562 261.622 97.255 261.306 97.7834C260.991 98.3118 260.599 98.7614 260.13 99.1321C259.662 99.4986 259.135 99.7777 258.551 99.9695C257.972 100.161 257.352 100.257 256.691 100.257C255.575 100.257 254.582 99.9844 253.713 99.4389C252.843 98.8935 252.159 98.1179 251.661 97.1122C251.162 96.1065 250.913 94.9134 250.913 93.5327C250.913 92.152 251.162 90.9588 251.661 89.9531C252.159 88.9474 252.843 88.1719 253.713 87.6264C254.582 87.081 255.575 86.8082 256.691 86.8082C257.352 86.8082 257.972 86.9041 258.551 87.0959C259.135 87.2876 259.662 87.5689 260.13 87.9396C260.599 88.3061 260.991 88.7536 261.306 89.282C261.622 89.8061 261.839 90.4048 261.958 91.0781ZM269.199 100.078L271.347 86.9872H272.625L270.477 100.078H269.199ZM263.242 96.4474L263.446 95.169H273.213L273.009 96.4474H263.242ZM264.597 100.078L266.744 86.9872H268.023L265.875 100.078H264.597ZM264.009 91.8963L264.213 90.6179H273.98L273.776 91.8963H264.009Z" fill="white"/>
<circle cx="172.951" cy="31.0726" r="31.0726" fill="#293C53"/>
<path d="M166.657 26.5884H165.072C164.978 26.1324 164.814 25.7318 164.58 25.3867C164.35 25.0415 164.068 24.7517 163.736 24.5174C163.408 24.2787 163.044 24.0997 162.643 23.9804C162.242 23.8611 161.825 23.8014 161.39 23.8014C160.598 23.8014 159.88 24.0017 159.236 24.4023C158.597 24.8029 158.088 25.3931 157.708 26.1729C157.333 26.9527 157.146 27.9094 157.146 29.0429C157.146 30.1764 157.333 31.1331 157.708 31.913C158.088 32.6928 158.597 33.283 159.236 33.6835C159.88 34.0841 160.598 34.2844 161.39 34.2844C161.825 34.2844 162.242 34.2247 162.643 34.1054C163.044 33.9861 163.408 33.8093 163.736 33.5749C164.068 33.3362 164.35 33.0443 164.58 32.6992C164.814 32.3497 164.978 31.9492 165.072 31.4975H166.657C166.538 32.1665 166.321 32.7652 166.005 33.2936C165.69 33.822 165.298 34.2716 164.829 34.6424C164.36 35.0088 163.834 35.288 163.25 35.4797C162.671 35.6715 162.051 35.7674 161.39 35.7674C160.274 35.7674 159.281 35.4946 158.411 34.9492C157.542 34.4037 156.858 33.6282 156.36 32.6225C155.861 31.6168 155.612 30.4236 155.612 29.0429C155.612 27.6622 155.861 26.4691 156.36 25.4634C156.858 24.4577 157.542 23.6821 158.411 23.1367C159.281 22.5912 160.274 22.3185 161.39 22.3185C162.051 22.3185 162.671 22.4144 163.25 22.6061C163.834 22.7979 164.36 23.0791 164.829 23.4499C165.298 23.8164 165.69 24.2638 166.005 24.7922C166.321 25.3164 166.538 25.9151 166.657 26.5884ZM172.85 33.2872V24.8497H174.281V33.2872H172.85ZM169.347 29.7844V28.3526H177.784V29.7844H169.347ZM184.715 33.2872V24.8497H186.147V33.2872H184.715ZM181.212 29.7844V28.3526H189.649V29.7844H181.212Z" fill="white"/>
<path d="M157.196 115.128H158.781V124.486C158.781 125.322 158.628 126.031 158.321 126.615C158.014 127.199 157.582 127.642 157.024 127.944C156.465 128.247 155.807 128.398 155.048 128.398C154.332 128.398 153.695 128.268 153.137 128.008C152.579 127.744 152.14 127.369 151.82 126.883C151.501 126.398 151.341 125.82 151.341 125.151H152.901C152.901 125.522 152.992 125.846 153.176 126.123C153.363 126.395 153.619 126.608 153.943 126.762C154.266 126.915 154.635 126.992 155.048 126.992C155.504 126.992 155.892 126.896 156.212 126.704C156.531 126.513 156.774 126.231 156.94 125.861C157.111 125.486 157.196 125.027 157.196 124.486V115.128ZM169.117 118.401C169.041 117.753 168.73 117.25 168.184 116.893C167.639 116.535 166.97 116.356 166.177 116.356C165.597 116.356 165.09 116.449 164.656 116.637C164.225 116.824 163.889 117.082 163.646 117.41C163.407 117.738 163.288 118.111 163.288 118.529C163.288 118.878 163.371 119.179 163.537 119.43C163.707 119.677 163.925 119.884 164.189 120.05C164.453 120.212 164.73 120.346 165.02 120.453C165.31 120.555 165.576 120.638 165.819 120.702L167.149 121.06C167.489 121.15 167.869 121.273 168.286 121.431C168.708 121.589 169.111 121.804 169.494 122.076C169.882 122.345 170.202 122.69 170.453 123.112C170.705 123.534 170.83 124.052 170.83 124.665C170.83 125.373 170.645 126.012 170.274 126.583C169.908 127.154 169.371 127.608 168.663 127.944C167.96 128.281 167.106 128.449 166.1 128.449C165.163 128.449 164.351 128.298 163.665 127.996C162.983 127.693 162.446 127.271 162.054 126.73C161.666 126.189 161.447 125.56 161.396 124.844H163.032C163.075 125.339 163.241 125.748 163.531 126.072C163.825 126.391 164.195 126.63 164.643 126.787C165.095 126.941 165.58 127.018 166.1 127.018C166.705 127.018 167.249 126.92 167.73 126.723C168.212 126.523 168.593 126.246 168.874 125.893C169.156 125.535 169.296 125.117 169.296 124.64C169.296 124.205 169.175 123.851 168.932 123.579C168.689 123.306 168.369 123.084 167.973 122.914C167.577 122.743 167.149 122.594 166.688 122.466L165.078 122.006C164.055 121.712 163.245 121.292 162.649 120.747C162.052 120.201 161.754 119.488 161.754 118.606C161.754 117.873 161.952 117.233 162.348 116.688C162.749 116.138 163.286 115.712 163.959 115.41C164.636 115.103 165.393 114.949 166.228 114.949C167.072 114.949 167.822 115.101 168.478 115.403C169.134 115.701 169.654 116.111 170.038 116.63C170.426 117.15 170.63 117.741 170.651 118.401H169.117Z" fill="white"/>
<path d="M59.6812 70.3268C59.6045 69.6791 59.2934 69.1763 58.748 68.8183C58.2025 68.4604 57.5335 68.2814 56.7409 68.2814C56.1613 68.2814 55.6542 68.3751 55.2196 68.5626C54.7892 68.7501 54.4525 69.0079 54.2096 69.3361C53.971 69.6642 53.8517 70.0371 53.8517 70.4547C53.8517 70.8041 53.9348 71.1045 54.1009 71.356C54.2714 71.6031 54.4887 71.8098 54.7529 71.976C55.0171 72.1379 55.2941 72.2721 55.5839 72.3787C55.8737 72.481 56.14 72.5641 56.3829 72.628L57.7125 72.9859C58.0534 73.0754 58.4326 73.199 58.8502 73.3567C59.2721 73.5143 59.6748 73.7295 60.0583 74.0023C60.4461 74.2707 60.7657 74.6159 61.0171 75.0378C61.2686 75.4597 61.3943 75.9774 61.3943 76.591C61.3943 77.2984 61.2089 77.9376 60.8382 78.5087C60.4717 79.0797 59.9348 79.5335 59.2274 79.8702C58.5242 80.2068 57.6698 80.3751 56.6642 80.3751C55.7267 80.3751 54.9149 80.2239 54.2288 79.9213C53.547 79.6187 53.01 79.1969 52.618 78.6557C52.2302 78.1145 52.0107 77.4859 51.9596 76.77H53.596C53.6386 77.2643 53.8048 77.6734 54.0946 77.9973C54.3886 78.3169 54.7593 78.5555 55.2068 78.7132C55.6585 78.8666 56.1443 78.9433 56.6642 78.9433C57.2693 78.9433 57.8126 78.8453 58.2941 78.6493C58.7757 78.449 59.1571 78.172 59.4383 77.8183C59.7196 77.4604 59.8602 77.0427 59.8602 76.5655C59.8602 76.1308 59.7387 75.7771 59.4958 75.5044C59.2529 75.2317 58.9333 75.0101 58.537 74.8396C58.1407 74.6692 57.7125 74.52 57.2522 74.3922L55.6414 73.932C54.6187 73.6379 53.809 73.2182 53.2125 72.6727C52.6159 72.1273 52.3176 71.4135 52.3176 70.5314C52.3176 69.7984 52.5157 69.1592 52.912 68.6138C53.3126 68.0641 53.8495 67.6379 54.5228 67.3354C55.2004 67.0285 55.9568 66.8751 56.792 66.8751C57.6357 66.8751 58.3857 67.0264 59.042 67.329C59.6982 67.6273 60.2181 68.0364 60.6017 68.5562C60.9894 69.0761 61.194 69.6663 61.2153 70.3268H59.6812ZM68.7563 76.0541H70.4949L71.9523 77.9717L72.3359 78.4831L74.5091 81.3723H72.7705L71.3387 79.4547L70.9807 78.9689L68.7563 76.0541ZM75.0461 73.5996C75.0461 74.9802 74.7968 76.1734 74.2982 77.1791C73.7996 78.1848 73.1157 78.9604 72.2464 79.5058C71.377 80.0513 70.3841 80.324 69.2677 80.324C68.1512 80.324 67.1583 80.0513 66.289 79.5058C65.4197 78.9604 64.7357 78.1848 64.2371 77.1791C63.7386 76.1734 63.4893 74.9802 63.4893 73.5996C63.4893 72.2189 63.7386 71.0257 64.2371 70.02C64.7357 69.0143 65.4197 68.2388 66.289 67.6933C67.1583 67.1479 68.1512 66.8751 69.2677 66.8751C70.3841 66.8751 71.377 67.1479 72.2464 67.6933C73.1157 68.2388 73.7996 69.0143 74.2982 70.02C74.7968 71.0257 75.0461 72.2189 75.0461 73.5996ZM73.512 73.5996C73.512 72.466 73.3224 71.5094 72.9431 70.7295C72.5681 69.9497 72.0589 69.3595 71.4154 68.9589C70.7762 68.5584 70.0603 68.3581 69.2677 68.3581C68.4751 68.3581 67.757 68.5584 67.1136 68.9589C66.4743 69.3595 65.9651 69.9497 65.5859 70.7295C65.2109 71.5094 65.0234 72.466 65.0234 73.5996C65.0234 74.7331 65.2109 75.6898 65.5859 76.4696C65.9651 77.2494 66.4743 77.8396 67.1136 78.2402C67.757 78.6408 68.4751 78.841 69.2677 78.841C70.0603 78.841 70.7762 78.6408 71.4154 78.2402C72.0589 77.8396 72.5681 77.2494 72.9431 76.4696C73.3224 75.6898 73.512 74.7331 73.512 73.5996ZM77.7116 80.145V67.0541H79.2968V78.7388H85.382V80.145H77.7116Z" fill="white"/>
<path d="M240.915 190.745H239.329C239.236 190.289 239.071 189.889 238.837 189.543C238.607 189.198 238.326 188.908 237.993 188.674C237.665 188.435 237.301 188.256 236.9 188.137C236.5 188.018 236.082 187.958 235.647 187.958C234.855 187.958 234.137 188.158 233.493 188.559C232.854 188.96 232.345 189.55 231.966 190.33C231.591 191.109 231.403 192.066 231.403 193.2C231.403 194.333 231.591 195.29 231.966 196.07C232.345 196.85 232.854 197.44 233.493 197.84C234.137 198.241 234.855 198.441 235.647 198.441C236.082 198.441 236.5 198.381 236.9 198.262C237.301 198.143 237.665 197.966 237.993 197.732C238.326 197.493 238.607 197.201 238.837 196.856C239.071 196.506 239.236 196.106 239.329 195.654H240.915C240.795 196.323 240.578 196.922 240.263 197.45C239.947 197.979 239.555 198.428 239.086 198.799C238.618 199.166 238.091 199.445 237.508 199.636C236.928 199.828 236.308 199.924 235.647 199.924C234.531 199.924 233.538 199.651 232.669 199.106C231.799 198.56 231.116 197.785 230.617 196.779C230.118 195.774 229.869 194.58 229.869 193.2C229.869 191.819 230.118 190.626 230.617 189.62C231.116 188.614 231.799 187.839 232.669 187.293C233.538 186.748 234.531 186.475 235.647 186.475C236.308 186.475 236.928 186.571 237.508 186.763C238.091 186.955 238.618 187.236 239.086 187.607C239.555 187.973 239.947 188.421 240.263 188.949C240.578 189.473 240.795 190.072 240.915 190.745ZM250.635 189.927C250.559 189.279 250.247 188.776 249.702 188.418C249.157 188.06 248.488 187.881 247.695 187.881C247.115 187.881 246.608 187.975 246.174 188.163C245.743 188.35 245.407 188.608 245.164 188.936C244.925 189.264 244.806 189.637 244.806 190.055C244.806 190.404 244.889 190.705 245.055 190.956C245.225 191.203 245.443 191.41 245.707 191.576C245.971 191.738 246.248 191.872 246.538 191.979C246.828 192.081 247.094 192.164 247.337 192.228L248.666 192.586C249.007 192.676 249.387 192.799 249.804 192.957C250.226 193.114 250.629 193.33 251.012 193.602C251.4 193.871 251.72 194.216 251.971 194.638C252.223 195.06 252.348 195.578 252.348 196.191C252.348 196.899 252.163 197.538 251.792 198.109C251.426 198.68 250.889 199.134 250.181 199.47C249.478 199.807 248.624 199.975 247.618 199.975C246.681 199.975 245.869 199.824 245.183 199.521C244.501 199.219 243.964 198.797 243.572 198.256C243.184 197.715 242.965 197.086 242.914 196.37H244.55C244.593 196.864 244.759 197.274 245.049 197.597C245.343 197.917 245.713 198.156 246.161 198.313C246.613 198.467 247.098 198.543 247.618 198.543C248.223 198.543 248.767 198.445 249.248 198.249C249.73 198.049 250.111 197.772 250.392 197.418C250.674 197.06 250.814 196.643 250.814 196.166C250.814 195.731 250.693 195.377 250.45 195.104C250.207 194.832 249.887 194.61 249.491 194.44C249.095 194.269 248.666 194.12 248.206 193.992L246.595 193.532C245.573 193.238 244.763 192.818 244.166 192.273C243.57 191.727 243.272 191.014 243.272 190.131C243.272 189.399 243.47 188.759 243.866 188.214C244.267 187.664 244.804 187.238 245.477 186.935C246.154 186.629 246.911 186.475 247.746 186.475C248.59 186.475 249.34 186.627 249.996 186.929C250.652 187.227 251.172 187.636 251.556 188.156C251.943 188.676 252.148 189.266 252.169 189.927H250.635ZM262.114 189.927C262.037 189.279 261.726 188.776 261.181 188.418C260.635 188.06 259.966 187.881 259.173 187.881C258.594 187.881 258.087 187.975 257.652 188.163C257.222 188.35 256.885 188.608 256.642 188.936C256.404 189.264 256.284 189.637 256.284 190.055C256.284 190.404 256.367 190.705 256.534 190.956C256.704 191.203 256.921 191.41 257.185 191.576C257.45 191.738 257.727 191.872 258.016 191.979C258.306 192.081 258.573 192.164 258.815 192.228L260.145 192.586C260.486 192.676 260.865 192.799 261.283 192.957C261.705 193.114 262.107 193.33 262.491 193.602C262.879 193.871 263.198 194.216 263.45 194.638C263.701 195.06 263.827 195.578 263.827 196.191C263.827 196.899 263.641 197.538 263.271 198.109C262.904 198.68 262.367 199.134 261.66 199.47C260.957 199.807 260.102 199.975 259.097 199.975C258.159 199.975 257.347 199.824 256.661 199.521C255.98 199.219 255.443 198.797 255.051 198.256C254.663 197.715 254.443 197.086 254.392 196.37H256.029C256.071 196.864 256.237 197.274 256.527 197.597C256.821 197.917 257.192 198.156 257.639 198.313C258.091 198.467 258.577 198.543 259.097 198.543C259.702 198.543 260.245 198.445 260.727 198.249C261.208 198.049 261.59 197.772 261.871 197.418C262.152 197.06 262.293 196.643 262.293 196.166C262.293 195.731 262.171 195.377 261.928 195.104C261.685 194.832 261.366 194.61 260.97 194.44C260.573 194.269 260.145 194.12 259.685 193.992L258.074 193.532C257.051 193.238 256.242 192.818 255.645 192.273C255.048 191.727 254.75 191.014 254.75 190.131C254.75 189.399 254.948 188.759 255.345 188.214C255.745 187.664 256.282 187.238 256.955 186.935C257.633 186.629 258.389 186.475 259.225 186.475C260.068 186.475 260.818 186.627 261.475 186.929C262.131 187.227 262.651 187.636 263.034 188.156C263.422 188.676 263.627 189.266 263.648 189.927H262.114Z" fill="white"/>
</svg>
