<svg width="566" height="799" viewBox="0 0 566 799" fill="none" xmlns="http://www.w3.org/2000/svg">
<mask id="mask0_110_556" style="mask-type:alpha" maskUnits="userSpaceOnUse" x="0" y="0" width="568" height="799">
<rect width="568" height="799" fill="#D9D9D9"/>
</mask>
<g mask="url(#mask0_110_556)">
<rect x="-146.5" y="0.5" width="147" height="47" fill="#F6EEE3" stroke="#EBE4DA" stroke-width="3"/>
<rect x="439.5" y="0.5" width="147" height="47" fill="#F6EEE3" stroke="#EBE4DA" stroke-width="3"/>
<rect x="0.5" y="0.5" width="147" height="47" fill="#F6EEE3" stroke="#EBE4DA" stroke-width="3"/>
<rect x="146.5" y="0.5" width="147" height="47" fill="#F6EEE3" stroke="#EBE4DA" stroke-width="3"/>
<rect x="292.5" y="0.5" width="147" height="47" fill="#F6EEE3" stroke="#EBE4DA" stroke-width="3"/>
<rect x="-71.5" y="50.5" width="147" height="47" fill="#F6EEE3" stroke="#EBE4DA" stroke-width="3"/>
<rect x="514.5" y="50.5" width="147" height="47" fill="#F6EEE3" stroke="#EBE4DA" stroke-width="3"/>
<rect x="75.5" y="50.5" width="147" height="47" fill="#F6EEE3" stroke="#EBE4DA" stroke-width="3"/>
<rect x="221.5" y="50.5" width="147" height="47" fill="#F6EEE3" stroke="#EBE4DA" stroke-width="3"/>
<rect x="367.5" y="50.5" width="147" height="47" fill="#F6EEE3" stroke="#EBE4DA" stroke-width="3"/>
<rect x="-56.5" y="300.5" width="147" height="47" fill="#F6EEE3" stroke="#EBE4DA" stroke-width="3"/>
<rect x="529.5" y="300.5" width="147" height="47" fill="#F6EEE3" stroke="#EBE4DA" stroke-width="3"/>
<rect x="90.5" y="300.5" width="147" height="47" fill="#F6EEE3" stroke="#EBE4DA" stroke-width="3"/>
<rect x="236.5" y="300.5" width="147" height="47" fill="#F6EEE3" stroke="#EBE4DA" stroke-width="3"/>
<rect x="382.5" y="300.5" width="147" height="47" fill="#F6EEE3" stroke="#EBE4DA" stroke-width="3"/>
<rect x="-145.5" y="300.5" width="147" height="47" fill="#F6EEE3" stroke="#EBE4DA" stroke-width="3"/>
<rect x="440.5" y="300.5" width="147" height="47" fill="#F6EEE3" stroke="#EBE4DA" stroke-width="3"/>
<rect x="1.5" y="300.5" width="147" height="47" fill="#F6EEE3" stroke="#EBE4DA" stroke-width="3"/>
<rect x="147.5" y="300.5" width="147" height="47" fill="#F6EEE3" stroke="#EBE4DA" stroke-width="3"/>
<rect x="293.5" y="300.5" width="147" height="47" fill="#F6EEE3" stroke="#EBE4DA" stroke-width="3"/>
<rect x="-70.5" y="350.5" width="147" height="47" fill="#F6EEE3" stroke="#EBE4DA" stroke-width="3"/>
<rect x="515.5" y="350.5" width="147" height="47" fill="#F6EEE3" stroke="#EBE4DA" stroke-width="3"/>
<rect x="76.5" y="350.5" width="147" height="47" fill="#F6EEE3" stroke="#EBE4DA" stroke-width="3"/>
<rect x="222.5" y="350.5" width="147" height="47" fill="#F6EEE3" stroke="#EBE4DA" stroke-width="3"/>
<rect x="368.5" y="350.5" width="147" height="47" fill="#F6EEE3" stroke="#EBE4DA" stroke-width="3"/>
<rect x="-54.5" y="400.5" width="147" height="47" fill="#F6EEE3" stroke="#EBE4DA" stroke-width="3"/>
<rect x="531.5" y="400.5" width="147" height="47" fill="#F6EEE3" stroke="#EBE4DA" stroke-width="3"/>
<rect x="92.5" y="400.5" width="147" height="47" fill="#F6EEE3" stroke="#EBE4DA" stroke-width="3"/>
<rect x="238.5" y="400.5" width="147" height="47" fill="#F6EEE3" stroke="#EBE4DA" stroke-width="3"/>
<rect x="384.5" y="400.5" width="147" height="47" fill="#F6EEE3" stroke="#EBE4DA" stroke-width="3"/>
<rect x="-143.5" y="400.5" width="147" height="47" fill="#F6EEE3" stroke="#EBE4DA" stroke-width="3"/>
<rect x="442.5" y="400.5" width="147" height="47" fill="#F6EEE3" stroke="#EBE4DA" stroke-width="3"/>
<rect x="3.5" y="400.5" width="147" height="47" fill="#F6EEE3" stroke="#EBE4DA" stroke-width="3"/>
<rect x="149.5" y="400.5" width="147" height="47" fill="#F6EEE3" stroke="#EBE4DA" stroke-width="3"/>
<rect x="295.5" y="400.5" width="147" height="47" fill="#F6EEE3" stroke="#EBE4DA" stroke-width="3"/>
<rect x="-68.5" y="450.5" width="147" height="47" fill="#F6EEE3" stroke="#EBE4DA" stroke-width="3"/>
<rect x="517.5" y="450.5" width="147" height="47" fill="#F6EEE3" stroke="#EBE4DA" stroke-width="3"/>
<rect x="78.5" y="450.5" width="147" height="47" fill="#F6EEE3" stroke="#EBE4DA" stroke-width="3"/>
<rect x="224.5" y="450.5" width="147" height="47" fill="#F6EEE3" stroke="#EBE4DA" stroke-width="3"/>
<rect x="370.5" y="450.5" width="147" height="47" fill="#F6EEE3" stroke="#EBE4DA" stroke-width="3"/>
<rect x="-54.5" y="500.5" width="147" height="47" fill="#F6EEE3" stroke="#EBE4DA" stroke-width="3"/>
<rect x="531.5" y="500.5" width="147" height="47" fill="#F6EEE3" stroke="#EBE4DA" stroke-width="3"/>
<rect x="92.5" y="500.5" width="147" height="47" fill="#F6EEE3" stroke="#EBE4DA" stroke-width="3"/>
<rect x="238.5" y="500.5" width="147" height="47" fill="#F6EEE3" stroke="#EBE4DA" stroke-width="3"/>
<rect x="384.5" y="500.5" width="147" height="47" fill="#F6EEE3" stroke="#EBE4DA" stroke-width="3"/>
<rect x="-143.5" y="500.5" width="147" height="47" fill="#F6EEE3" stroke="#EBE4DA" stroke-width="3"/>
<rect x="442.5" y="500.5" width="147" height="47" fill="#F6EEE3" stroke="#EBE4DA" stroke-width="3"/>
<rect x="3.5" y="500.5" width="147" height="47" fill="#F6EEE3" stroke="#EBE4DA" stroke-width="3"/>
<rect x="149.5" y="500.5" width="147" height="47" fill="#F6EEE3" stroke="#EBE4DA" stroke-width="3"/>
<rect x="295.5" y="500.5" width="147" height="47" fill="#F6EEE3" stroke="#EBE4DA" stroke-width="3"/>
<rect x="-68.5" y="550.5" width="147" height="47" fill="#F6EEE3" stroke="#EBE4DA" stroke-width="3"/>
<rect x="517.5" y="550.5" width="147" height="47" fill="#F6EEE3" stroke="#EBE4DA" stroke-width="3"/>
<rect x="78.5" y="550.5" width="147" height="47" fill="#F6EEE3" stroke="#EBE4DA" stroke-width="3"/>
<rect x="224.5" y="550.5" width="147" height="47" fill="#F6EEE3" stroke="#EBE4DA" stroke-width="3"/>
<rect x="370.5" y="550.5" width="147" height="47" fill="#F6EEE3" stroke="#EBE4DA" stroke-width="3"/>
<rect x="-58.5" y="600.5" width="147" height="47" fill="#F6EEE3" stroke="#EBE4DA" stroke-width="3"/>
<rect x="527.5" y="600.5" width="147" height="47" fill="#F6EEE3" stroke="#EBE4DA" stroke-width="3"/>
<rect x="88.5" y="600.5" width="147" height="47" fill="#F6EEE3" stroke="#EBE4DA" stroke-width="3"/>
<rect x="234.5" y="600.5" width="147" height="47" fill="#F6EEE3" stroke="#EBE4DA" stroke-width="3"/>
<rect x="380.5" y="600.5" width="147" height="47" fill="#F6EEE3" stroke="#EBE4DA" stroke-width="3"/>
<rect x="-147.5" y="600.5" width="147" height="47" fill="#F6EEE3" stroke="#EBE4DA" stroke-width="3"/>
<rect x="438.5" y="600.5" width="147" height="47" fill="#F6EEE3" stroke="#EBE4DA" stroke-width="3"/>
<rect x="-0.5" y="600.5" width="147" height="47" fill="#F6EEE3" stroke="#EBE4DA" stroke-width="3"/>
<rect x="145.5" y="600.5" width="147" height="47" fill="#F6EEE3" stroke="#EBE4DA" stroke-width="3"/>
<rect x="291.5" y="600.5" width="147" height="47" fill="#F6EEE3" stroke="#EBE4DA" stroke-width="3"/>
<rect x="-72.5" y="650.5" width="147" height="47" fill="#F6EEE3" stroke="#EBE4DA" stroke-width="3"/>
<rect x="513.5" y="650.5" width="147" height="47" fill="#F6EEE3" stroke="#EBE4DA" stroke-width="3"/>
<rect x="74.5" y="650.5" width="147" height="47" fill="#F6EEE3" stroke="#EBE4DA" stroke-width="3"/>
<rect x="220.5" y="650.5" width="147" height="47" fill="#F6EEE3" stroke="#EBE4DA" stroke-width="3"/>
<rect x="366.5" y="650.5" width="147" height="47" fill="#F6EEE3" stroke="#EBE4DA" stroke-width="3"/>
<rect x="-58.5" y="700.5" width="147" height="47" fill="#F6EEE3" stroke="#EBE4DA" stroke-width="3"/>
<rect x="527.5" y="700.5" width="147" height="47" fill="#F6EEE3" stroke="#EBE4DA" stroke-width="3"/>
<rect x="88.5" y="700.5" width="147" height="47" fill="#F6EEE3" stroke="#EBE4DA" stroke-width="3"/>
<rect x="234.5" y="700.5" width="147" height="47" fill="#F6EEE3" stroke="#EBE4DA" stroke-width="3"/>
<rect x="380.5" y="700.5" width="147" height="47" fill="#F6EEE3" stroke="#EBE4DA" stroke-width="3"/>
<rect x="-147.5" y="700.5" width="147" height="47" fill="#F6EEE3" stroke="#EBE4DA" stroke-width="3"/>
<rect x="438.5" y="700.5" width="147" height="47" fill="#F6EEE3" stroke="#EBE4DA" stroke-width="3"/>
<rect x="-0.5" y="700.5" width="147" height="47" fill="#F6EEE3" stroke="#EBE4DA" stroke-width="3"/>
<rect x="145.5" y="700.5" width="147" height="47" fill="#F6EEE3" stroke="#EBE4DA" stroke-width="3"/>
<rect x="291.5" y="700.5" width="147" height="47" fill="#F6EEE3" stroke="#EBE4DA" stroke-width="3"/>
<rect x="-72.5" y="750.5" width="147" height="47" fill="#F6EEE3" stroke="#EBE4DA" stroke-width="3"/>
<rect x="513.5" y="750.5" width="147" height="47" fill="#F6EEE3" stroke="#EBE4DA" stroke-width="3"/>
<rect x="74.5" y="750.5" width="147" height="47" fill="#F6EEE3" stroke="#EBE4DA" stroke-width="3"/>
<rect x="220.5" y="750.5" width="147" height="47" fill="#F6EEE3" stroke="#EBE4DA" stroke-width="3"/>
<rect x="366.5" y="750.5" width="147" height="47" fill="#F6EEE3" stroke="#EBE4DA" stroke-width="3"/>
<rect x="-59.5" y="100.5" width="147" height="47" fill="#F6EEE3" stroke="#EBE4DA" stroke-width="3"/>
<rect x="526.5" y="100.5" width="147" height="47" fill="#F6EEE3" stroke="#EBE4DA" stroke-width="3"/>
<rect x="87.5" y="100.5" width="147" height="47" fill="#F6EEE3" stroke="#EBE4DA" stroke-width="3"/>
<rect x="233.5" y="100.5" width="147" height="47" fill="#F6EEE3" stroke="#EBE4DA" stroke-width="3"/>
<rect x="379.5" y="100.5" width="147" height="47" fill="#F6EEE3" stroke="#EBE4DA" stroke-width="3"/>
<rect x="437.5" y="100.5" width="147" height="47" fill="#F6EEE3" stroke="#EBE4DA" stroke-width="3"/>
<rect x="-1.5" y="100.5" width="147" height="47" fill="#F6EEE3" stroke="#EBE4DA" stroke-width="3"/>
<rect x="144.5" y="100.5" width="147" height="47" fill="#F6EEE3" stroke="#EBE4DA" stroke-width="3"/>
<rect x="290.5" y="100.5" width="147" height="47" fill="#F6EEE3" stroke="#EBE4DA" stroke-width="3"/>
<rect x="-73.5" y="150.5" width="147" height="47" fill="#F6EEE3" stroke="#EBE4DA" stroke-width="3"/>
<rect x="512.5" y="150.5" width="147" height="47" fill="#F6EEE3" stroke="#EBE4DA" stroke-width="3"/>
<rect x="73.5" y="150.5" width="147" height="47" fill="#F6EEE3" stroke="#EBE4DA" stroke-width="3"/>
<rect x="219.5" y="150.5" width="147" height="47" fill="#F6EEE3" stroke="#EBE4DA" stroke-width="3"/>
<rect x="365.5" y="150.5" width="147" height="47" fill="#F6EEE3" stroke="#EBE4DA" stroke-width="3"/>
<rect x="-59.5" y="200.5" width="147" height="47" fill="#F6EEE3" stroke="#EBE4DA" stroke-width="3"/>
<rect x="526.5" y="200.5" width="147" height="47" fill="#F6EEE3" stroke="#EBE4DA" stroke-width="3"/>
<rect x="87.5" y="200.5" width="147" height="47" fill="#F6EEE3" stroke="#EBE4DA" stroke-width="3"/>
<rect x="233.5" y="200.5" width="147" height="47" fill="#F6EEE3" stroke="#EBE4DA" stroke-width="3"/>
<rect x="379.5" y="200.5" width="147" height="47" fill="#F6EEE3" stroke="#EBE4DA" stroke-width="3"/>
<rect x="437.5" y="200.5" width="147" height="47" fill="#F6EEE3" stroke="#EBE4DA" stroke-width="3"/>
<rect x="-1.5" y="200.5" width="147" height="47" fill="#F6EEE3" stroke="#EBE4DA" stroke-width="3"/>
<rect x="144.5" y="200.5" width="147" height="47" fill="#F6EEE3" stroke="#EBE4DA" stroke-width="3"/>
<rect x="290.5" y="200.5" width="147" height="47" fill="#F6EEE3" stroke="#EBE4DA" stroke-width="3"/>
<rect x="-73.5" y="250.5" width="147" height="47" fill="#F6EEE3" stroke="#EBE4DA" stroke-width="3"/>
<rect x="512.5" y="250.5" width="147" height="47" fill="#F6EEE3" stroke="#EBE4DA" stroke-width="3"/>
<rect x="73.5" y="250.5" width="147" height="47" fill="#F6EEE3" stroke="#EBE4DA" stroke-width="3"/>
<rect x="219.5" y="250.5" width="147" height="47" fill="#F6EEE3" stroke="#EBE4DA" stroke-width="3"/>
<rect x="365.5" y="250.5" width="147" height="47" fill="#F6EEE3" stroke="#EBE4DA" stroke-width="3"/>
</g>
</svg>
