<svg width="455" height="164" viewBox="0 0 455 164" fill="none" xmlns="http://www.w3.org/2000/svg">
<path d="M11.2532 38.1758H83.3054C88.9946 38.1758 93.4081 43.1424 92.7395 48.7922L80.157 155.117C79.5912 159.898 75.5377 163.5 70.7229 163.5H23.8357C19.0208 163.5 14.9674 159.898 14.4015 155.117L1.81902 48.7922C1.15041 43.1424 5.56395 38.1758 11.2532 38.1758Z" fill="#EEEFE7" stroke="black"/>
<path d="M8.12598 51.7119H87.171L75.5974 149.998C75.0044 155.034 70.7364 158.829 65.666 158.829H28.9534C23.857 158.829 19.5758 154.996 19.0143 149.931L8.12598 51.7119Z" fill="#BAB4E0"/>
<circle cx="23.6394" cy="101.946" r="5.90991" fill="#212F2F"/>
<circle cx="42.8469" cy="101.207" r="5.90991" fill="#212F2F"/>
<circle cx="67.9641" cy="104.162" r="5.90991" fill="#212F2F"/>
<circle cx="29.5496" cy="121.153" r="5.90991" fill="#212F2F"/>
<circle cx="54.6667" cy="123.369" r="5.90991" fill="#212F2F"/>
<circle cx="29.5496" cy="147.009" r="5.90991" fill="#212F2F"/>
<rect x="57.238" y="0.567674" width="11.5586" height="135.094" transform="rotate(8.39944 57.238 0.567674)" fill="#D9D9D9" stroke="black"/>
<circle cx="53.1892" cy="149.964" r="5.90991" fill="#212F2F"/>
<circle cx="67.9641" cy="136.667" r="5.90991" fill="#212F2F"/>
<path d="M131.253 38.1758H203.305C208.995 38.1758 213.408 43.1424 212.74 48.7922L200.157 155.117C199.591 159.898 195.538 163.5 190.723 163.5H143.836C139.021 163.5 134.967 159.898 134.402 155.117L121.819 48.7922C121.15 43.1424 125.564 38.1758 131.253 38.1758Z" fill="#EEEFE7" stroke="black"/>
<path d="M128.126 51.7119H207.171L195.597 149.998C195.004 155.034 190.736 158.829 185.666 158.829H148.953C143.857 158.829 139.576 154.996 139.014 149.931L128.126 51.7119Z" fill="#FAF1B8"/>
<circle cx="143.639" cy="101.946" r="5.90991" fill="#212F2F"/>
<circle cx="162.847" cy="101.207" r="5.90991" fill="#212F2F"/>
<circle cx="187.964" cy="104.162" r="5.90991" fill="#212F2F"/>
<circle cx="149.55" cy="121.153" r="5.90991" fill="#212F2F"/>
<circle cx="174.667" cy="123.369" r="5.90991" fill="#212F2F"/>
<circle cx="149.55" cy="147.009" r="5.90991" fill="#212F2F"/>
<rect x="177.238" y="0.567674" width="11.5586" height="135.094" transform="rotate(8.39944 177.238 0.567674)" fill="#D9D9D9" stroke="black"/>
<circle cx="173.189" cy="149.964" r="5.90991" fill="#212F2F"/>
<circle cx="187.964" cy="136.667" r="5.90991" fill="#212F2F"/>
<path d="M251.253 38.1758H323.305C328.995 38.1758 333.408 43.1424 332.74 48.7922L320.157 155.117C319.591 159.898 315.538 163.5 310.723 163.5H263.836C259.021 163.5 254.967 159.898 254.402 155.117L241.819 48.7922C241.15 43.1424 245.564 38.1758 251.253 38.1758Z" fill="#EEEFE7" stroke="black"/>
<path d="M248.126 51.7119H327.171L315.597 149.998C315.004 155.034 310.736 158.829 305.666 158.829H268.953C263.857 158.829 259.576 154.996 259.014 149.931L248.126 51.7119Z" fill="#FED5E5"/>
<circle cx="263.639" cy="101.946" r="5.90991" fill="#212F2F"/>
<circle cx="282.847" cy="101.207" r="5.90991" fill="#212F2F"/>
<circle cx="307.964" cy="104.162" r="5.90991" fill="#212F2F"/>
<circle cx="269.55" cy="121.153" r="5.90991" fill="#212F2F"/>
<circle cx="294.667" cy="123.369" r="5.90991" fill="#212F2F"/>
<circle cx="269.55" cy="147.009" r="5.90991" fill="#212F2F"/>
<rect x="297.238" y="0.567674" width="11.5586" height="135.094" transform="rotate(8.39944 297.238 0.567674)" fill="#D9D9D9" stroke="black"/>
<circle cx="293.189" cy="149.964" r="5.90991" fill="#212F2F"/>
<circle cx="307.964" cy="136.667" r="5.90991" fill="#212F2F"/>
<path d="M371.253 38.1758H443.305C448.995 38.1758 453.408 43.1424 452.74 48.7922L440.157 155.117C439.591 159.898 435.538 163.5 430.723 163.5H383.836C379.021 163.5 374.967 159.898 374.402 155.117L361.819 48.7922C361.15 43.1424 365.564 38.1758 371.253 38.1758Z" fill="#EEEFE7" stroke="black"/>
<path d="M368.126 51.7119H447.171L435.597 149.998C435.004 155.034 430.736 158.829 425.666 158.829H388.953C383.857 158.829 379.576 154.996 379.014 149.931L368.126 51.7119Z" fill="#B3BC83"/>
<circle cx="383.639" cy="101.946" r="5.90991" fill="#212F2F"/>
<circle cx="402.847" cy="101.207" r="5.90991" fill="#212F2F"/>
<circle cx="427.964" cy="104.162" r="5.90991" fill="#212F2F"/>
<circle cx="389.55" cy="121.153" r="5.90991" fill="#212F2F"/>
<circle cx="414.667" cy="123.369" r="5.90991" fill="#212F2F"/>
<circle cx="389.55" cy="147.009" r="5.90991" fill="#212F2F"/>
<rect x="417.238" y="0.567674" width="11.5586" height="135.094" transform="rotate(8.39944 417.238 0.567674)" fill="#D9D9D9" stroke="black"/>
<circle cx="413.189" cy="149.964" r="5.90991" fill="#212F2F"/>
<circle cx="427.964" cy="136.667" r="5.90991" fill="#212F2F"/>
</svg>
