<svg width="600" height="317" viewBox="0 0 600 317" fill="none" xmlns="http://www.w3.org/2000/svg">
<path d="M269.039 45.0338C185.534 -46.3809 45.1801 34.5348 0 6.03797V174.019C168.683 138.023 211.741 156.786 269.039 222.5C370.619 339 479.469 250 600 316.987V174.019C494.336 66 430.249 221.514 269.039 45.0338Z" fill="#FFEBAE"/>
<rect x="35.25" y="99.25" width="40.5" height="40.5" rx="9.75" fill="white" stroke="#212F2F" stroke-width="0.5"/>
<circle cx="103.503" cy="44.5026" r="19.8131" transform="rotate(-5.12103 103.503 44.5026)" fill="#212F2F"/>
<circle cx="179.503" cy="120.503" r="19.8131" transform="rotate(-5.12103 179.503 120.503)" fill="#212F2F"/>
<circle cx="295.503" cy="121.503" r="19.8131" transform="rotate(-5.12103 295.503 121.503)" fill="#212F2F"/>
<circle cx="392.503" cy="179.503" r="19.8131" transform="rotate(-5.12103 392.503 179.503)" fill="#212F2F"/>
<circle cx="538.503" cy="255.503" r="19.8131" transform="rotate(-5.12103 538.503 255.503)" fill="#212F2F"/>
<rect x="201.25" y="32.25" width="40.5" height="40.5" rx="9.75" fill="white" stroke="#212F2F" stroke-width="0.5"/>
<rect x="292.25" y="193.25" width="40.5" height="40.5" rx="9.75" fill="white" stroke="#212F2F" stroke-width="0.5"/>
<rect x="400.25" y="234.25" width="40.5" height="40.5" rx="9.75" fill="white" stroke="#212F2F" stroke-width="0.5"/>
<rect x="469.25" y="158.25" width="40.5" height="40.5" rx="9.75" fill="white" stroke="#212F2F" stroke-width="0.5"/>
</svg>
