<svg width="280" height="100" viewBox="0 0 280 100" fill="none" xmlns="http://www.w3.org/2000/svg">
<circle cx="38.5" cy="61.5" r="37.5" fill="#353A5A" stroke="#353A5A" stroke-width="2"/>
<g filter="url(#filter0_d_105_28)">
<path d="M11.1721 33.1029C9.94029 27.2423 14.1009 21.6204 20.0657 21.0859L49.6641 18.4333C55.6289 17.8988 60.7228 22.6913 60.5527 28.6775L59.1289 78.7718C58.9849 83.838 55.0736 87.9954 50.0255 88.4478L32.1591 90.0489C27.1111 90.5013 22.5228 87.1056 21.4803 82.1457L11.1721 33.1029Z" fill="white"/>
<path d="M14.0195 29.4106L57.5008 25.514L56.0903 76.1709C55.9492 81.2394 52.037 85.4 46.9868 85.8526L34.7491 86.9493C29.673 87.4042 25.0669 83.9689 24.0554 78.9738L14.0195 29.4106Z" fill="#FFEBAE"/>
<circle cx="46.5428" cy="53.2462" r="3.26396" transform="rotate(-5.12103 46.5428 53.2462)" fill="#212F2F"/>
<circle cx="24.5428" cy="57.2462" r="3.26396" transform="rotate(-5.12103 24.5428 57.2462)" fill="#212F2F"/>
<circle cx="35.5428" cy="58.2462" r="3.26396" transform="rotate(-5.12103 35.5428 58.2462)" fill="#212F2F"/>
<circle cx="26.5423" cy="71.2462" r="3.26396" transform="rotate(-5.12103 26.5423 71.2462)" fill="#212F2F"/>
<circle cx="50.5428" cy="63.2462" r="3.26396" transform="rotate(-5.12103 50.5428 63.2462)" fill="#212F2F"/>
<circle cx="34.5423" cy="80.2462" r="3.26396" transform="rotate(-5.12103 34.5423 80.2462)" fill="#212F2F"/>
<rect x="40.2983" y="1.7041" width="6.93592" height="75.1627" transform="rotate(3.27841 40.2983 1.7041)" fill="#D9D9D9"/>
<circle cx="38.5428" cy="69.2462" r="3.26396" transform="rotate(-5.12103 38.5428 69.2462)" fill="#212F2F"/>
<circle cx="49.5428" cy="77.2462" r="3.26396" transform="rotate(-5.12103 49.5428 77.2462)" fill="#212F2F"/>
</g>
<path d="M91.645 75.36C92.0183 74.9633 92.2633 74.5667 92.38 74.17C92.52 73.7733 92.59 73.4 92.59 73.05C92.59 72.7233 92.2517 66.9367 91.575 55.69C92.905 56.2267 94.3867 56.495 96.02 56.495C97.3967 56.495 98.7033 56.2967 99.94 55.9L100.5 55.69L99.31 72.14C99.17 74.0767 98.54 75.6167 97.42 76.76C96.3233 77.9033 94.7133 78.475 92.59 78.475L90 76.48L90.455 76.27C90.875 76.06 91.2717 75.7567 91.645 75.36ZM96.02 54.955C94.8533 54.955 93.8733 54.605 93.08 53.905C92.2867 53.205 91.89 52.295 91.89 51.175C91.89 50.0317 92.275 49.1217 93.045 48.445C93.8383 47.745 94.8183 47.395 95.985 47.395C97.175 47.395 98.1667 47.745 98.96 48.445C99.7533 49.145 100.15 50.055 100.15 51.175C100.15 52.295 99.7533 53.205 98.96 53.905C98.1667 54.605 97.1867 54.955 96.02 54.955ZM104.948 70.285C103.268 68.885 102.428 66.6683 102.428 63.635C102.428 60.6017 103.268 58.3967 104.948 57.02C106.651 55.62 108.914 54.92 111.738 54.92C114.561 54.92 116.813 55.62 118.493 57.02C120.196 58.3967 121.048 60.6017 121.048 63.635C121.048 66.6683 120.196 68.885 118.493 70.285C116.813 71.6617 114.561 72.35 111.738 72.35C108.914 72.35 106.651 71.6617 104.948 70.285ZM110.268 59.68C109.988 60.4733 109.848 61.7917 109.848 63.635C109.848 65.4783 109.988 66.8083 110.268 67.625C110.548 68.4183 111.038 68.815 111.738 68.815C112.438 68.815 112.928 68.4183 113.208 67.625C113.488 66.8083 113.628 65.4783 113.628 63.635C113.628 61.7917 113.488 60.4733 113.208 59.68C112.928 58.8633 112.438 58.455 111.738 58.455C111.038 58.455 110.548 58.8633 110.268 59.68ZM135.119 68.115V67.835C135.049 68.2317 134.862 68.675 134.559 69.165C134.279 69.6317 133.964 70.0283 133.614 70.355C133.264 70.6817 132.762 70.9733 132.109 71.23C131.479 71.4867 130.639 71.615 129.589 71.615C128.539 71.615 127.547 71.3817 126.614 70.915C125.68 70.425 124.957 69.76 124.444 68.92C123.464 67.3567 122.974 65.6417 122.974 63.775C122.974 61.885 123.242 59.0967 123.779 55.41H130.569V62.97C130.569 65.5367 131.327 66.82 132.844 66.82C133.52 66.82 134.022 66.5167 134.349 65.91C134.675 65.3033 134.839 64.5333 134.839 63.6C134.839 63.4833 134.839 63.355 134.839 63.215L134.524 55.41H142.399L141.909 66.155C141.839 67.6717 141.722 68.9667 141.559 70.04C141.419 71.1133 141.139 72.21 140.719 73.33C140.322 74.4733 139.797 75.395 139.144 76.095C137.627 77.6817 135.375 78.475 132.389 78.475C130.289 78.475 128.317 77.8217 126.474 76.515L126.159 76.305L127.629 73.295C128.749 73.8083 129.799 74.065 130.779 74.065C132.132 74.065 133.194 73.54 133.964 72.49C134.734 71.4633 135.119 70.005 135.119 68.115ZM146.086 55.41C146.086 53.2633 146.588 51.63 147.591 50.51C148.618 49.3667 150.344 48.795 152.771 48.795C153.844 48.795 154.871 48.9467 155.851 49.25L156.236 52.645C155.886 52.5517 155.536 52.505 155.186 52.505C154.043 52.505 153.471 53.3217 153.471 54.955V55.41H155.606L156.026 59.96H153.681L153.156 72H146.716L146.191 59.96H143.986L144.406 55.41H146.086ZM164.589 72.35C160.179 72.35 157.974 69.3517 157.974 63.355C157.974 61.745 158.242 59.0967 158.779 55.41H165.569V62.97C165.569 65.6767 166.327 67.03 167.844 67.03C169.174 67.03 169.839 65.8167 169.839 63.39C169.839 63.2033 169.839 63.005 169.839 62.795L169.524 55.41H177.399L176.664 72H170.749L170.364 68.78C170.317 68.8733 170.259 69.0017 170.189 69.165C170.119 69.3283 169.92 69.62 169.594 70.04C169.29 70.4367 168.94 70.7983 168.544 71.125C168.147 71.4283 167.599 71.7083 166.899 71.965C166.199 72.2217 165.429 72.35 164.589 72.35ZM187.837 49.285L186.892 72H180.452L179.507 49.285H187.837ZM205.094 56.39C205.304 56.1567 205.77 55.8533 206.494 55.48C207.24 55.1067 208.022 54.92 208.839 54.92C209.679 54.92 210.472 55.0483 211.219 55.305C211.989 55.5617 212.735 55.9817 213.459 56.565C214.205 57.125 214.8 57.9883 215.244 59.155C215.71 60.3217 215.944 61.71 215.944 63.32C215.944 66.26 215.279 68.5 213.949 70.04C212.619 71.58 210.915 72.35 208.839 72.35C206.762 72.35 205.082 71.51 203.799 69.83C203.775 69.7833 203.752 69.7483 203.729 69.725L203.134 72H197.884L196.939 49.285H204.919L204.639 56.95C204.732 56.81 204.884 56.6233 205.094 56.39ZM206.634 59.61C205.094 59.61 204.324 61.01 204.324 63.81C204.324 64.7667 204.499 65.63 204.849 66.4C205.222 67.1467 205.747 67.52 206.424 67.52C207.1 67.52 207.614 67.2633 207.964 66.75C208.314 66.2367 208.524 65.7467 208.594 65.28C208.664 64.8133 208.699 64.3233 208.699 63.81C208.699 61.01 208.01 59.61 206.634 59.61ZM220.202 70.285C218.522 68.885 217.682 66.6683 217.682 63.635C217.682 60.6017 218.522 58.3967 220.202 57.02C221.905 55.62 224.168 54.92 226.992 54.92C229.815 54.92 232.067 55.62 233.747 57.02C235.45 58.3967 236.302 60.6017 236.302 63.635C236.302 66.6683 235.45 68.885 233.747 70.285C232.067 71.6617 229.815 72.35 226.992 72.35C224.168 72.35 221.905 71.6617 220.202 70.285ZM225.522 59.68C225.242 60.4733 225.102 61.7917 225.102 63.635C225.102 65.4783 225.242 66.8083 225.522 67.625C225.802 68.4183 226.292 68.815 226.992 68.815C227.692 68.815 228.182 68.4183 228.462 67.625C228.742 66.8083 228.882 65.4783 228.882 63.635C228.882 61.7917 228.742 60.4733 228.462 59.68C228.182 58.8633 227.692 58.455 226.992 58.455C226.292 58.455 225.802 58.8633 225.522 59.68ZM246.383 56.39C246.593 56.1567 247.059 55.8533 247.783 55.48C248.529 55.1067 249.311 54.92 250.128 54.92C250.968 54.92 251.761 55.0483 252.508 55.305C253.278 55.5617 254.024 55.9817 254.748 56.565C255.494 57.125 256.089 57.9883 256.533 59.155C256.999 60.3217 257.233 61.71 257.233 63.32C257.233 66.26 256.568 68.5 255.238 70.04C253.908 71.58 252.204 72.35 250.128 72.35C248.051 72.35 246.371 71.51 245.088 69.83C245.064 69.7833 245.041 69.7483 245.018 69.725L244.423 72H239.173L238.228 49.285H246.208L245.928 56.95C246.021 56.81 246.173 56.6233 246.383 56.39ZM247.923 59.61C246.383 59.61 245.613 61.01 245.613 63.81C245.613 64.7667 245.788 65.63 246.138 66.4C246.511 67.1467 247.036 67.52 247.713 67.52C248.389 67.52 248.903 67.2633 249.253 66.75C249.603 66.2367 249.813 65.7467 249.883 65.28C249.953 64.8133 249.988 64.3233 249.988 63.81C249.988 61.01 249.299 59.61 247.923 59.61ZM265.131 72.35C263.334 72.35 261.852 71.825 260.686 70.775C259.542 69.725 258.971 68.2433 258.971 66.33C258.971 64.3933 259.624 62.9933 260.931 62.13C262.237 61.2433 263.812 60.8 265.656 60.8C267.499 60.8 269.097 61.0917 270.451 61.675C270.147 59.7383 268.922 58.77 266.776 58.77C265.796 58.77 264.582 58.9683 263.136 59.365L262.261 56.215C264.361 55.3517 266.496 54.92 268.666 54.92C274.919 54.92 278.046 57.58 278.046 62.9C278.046 64.72 277.836 67.24 277.416 70.46L277.241 72H271.466L271.256 70.075C269.669 71.5917 267.627 72.35 265.131 72.35ZM268.281 68.01C269.331 68.01 270.229 67.7183 270.976 67.135L270.766 64.825C270.182 64.4283 269.529 64.23 268.806 64.23C268.106 64.23 267.522 64.405 267.056 64.755C266.612 65.105 266.391 65.5367 266.391 66.05C266.391 66.5633 266.566 67.0183 266.916 67.415C267.266 67.8117 267.721 68.01 268.281 68.01Z" fill="#353A5A"/>
<defs>
<filter id="filter0_d_105_28" x="6.95557" y="1.7041" width="57.6011" height="96.3853" filterUnits="userSpaceOnUse" color-interpolation-filters="sRGB">
<feFlood flood-opacity="0" result="BackgroundImageFix"/>
<feColorMatrix in="SourceAlpha" type="matrix" values="0 0 0 0 0 0 0 0 0 0 0 0 0 0 0 0 0 0 127 0" result="hardAlpha"/>
<feOffset dy="4"/>
<feGaussianBlur stdDeviation="2"/>
<feComposite in2="hardAlpha" operator="out"/>
<feColorMatrix type="matrix" values="0 0 0 0 0 0 0 0 0 0 0 0 0 0 0 0 0 0 0.25 0"/>
<feBlend mode="normal" in2="BackgroundImageFix" result="effect1_dropShadow_105_28"/>
<feBlend mode="normal" in="SourceGraphic" in2="effect1_dropShadow_105_28" result="shape"/>
</filter>
</defs>
</svg>
